<svg width="16" height="17" viewBox="0 0 16 17" fill="none" xmlns="http://www.w3.org/2000/svg">
<path d="M16 3.75033C15.515 4.40781 15.1004 5.13488 14.5333 5.71153C11.6346 8.66062 8.70292 11.5776 5.76292 14.4855C5.4525 14.7925 5.03625 15.0346 4.625 15.19C3.38667 15.6575 2.12667 16.0675 0.875 16.5C0.583333 16.5 0.291667 16.5 0 16.5C0 16.2083 0 15.9167 0 15.625C0.454583 14.3155 0.897083 13.0013 1.3725 11.6993C1.48208 11.3993 1.65792 11.0943 1.88167 10.8693C5.00083 7.72939 8.12458 4.59406 11.275 1.48497C11.6883 1.07707 12.2546 0.824575 12.75 0.5C13.125 0.5 13.5 0.5 13.875 0.5C14.9475 0.844158 15.6562 1.55206 16 2.62494C16 3.00035 16 3.37534 16 3.75033ZM11.3896 3.33368C8.59625 6.12735 5.8375 8.88603 3.16 11.5639C3.74333 12.1539 4.37917 12.7976 4.9275 13.3526C7.6525 10.6285 10.4117 7.87064 13.1642 5.11863C12.5867 4.53698 11.9571 3.90408 11.3896 3.33368ZM14.2142 4.22365C14.8858 3.59575 14.9325 2.72911 14.3029 2.13829C13.6867 1.55997 12.8408 1.64164 12.3025 2.2862C12.9421 2.93452 13.5779 3.57867 14.2142 4.22365ZM3.67083 14.1992C3.20833 13.7047 2.79125 13.2584 2.32458 12.7597C2.08833 13.4751 1.87292 14.128 1.62542 14.8771C2.3825 14.6263 3.02583 14.413 3.67083 14.1992Z" fill="#919094"/>
</svg>
