<svg width="24" height="24" viewBox="0 0 24 24" fill="none" xmlns="http://www.w3.org/2000/svg">
<path d="M14.049 15.4688C12.5364 16.6227 10.642 17.1586 8.74914 16.9682C6.85631 16.7777 5.10658 15.8751 3.85426 14.443C2.60194 13.011 1.94061 11.1565 2.00419 9.2552C2.06777 7.35387 2.85151 5.54776 4.1967 4.20256C5.5419 2.85737 7.34801 2.07363 9.24934 2.01005C11.1507 1.94647 13.0051 2.6078 14.4372 3.86012C15.8692 5.11244 16.7719 6.86217 16.9623 8.755C17.1528 10.6478 16.6168 12.5423 15.463 14.0548L20.706 19.2988C20.8881 19.4874 20.9889 19.74 20.9866 20.0022C20.9844 20.2644 20.8792 20.5152 20.6938 20.7006C20.5084 20.8861 20.2576 20.9912 19.9954 20.9935C19.7332 20.9958 19.4806 20.895 19.292 20.7128L14.048 15.4688H14.049ZM14.999 9.50583C14.999 8.04714 14.4195 6.64819 13.3881 5.61674C12.3566 4.58529 10.9577 4.00583 9.49897 4.00583C8.04028 4.00583 6.64133 4.58529 5.60988 5.61674C4.57843 6.64819 3.99897 8.04714 3.99897 9.50583C3.99897 10.9645 4.57843 12.3635 5.60988 13.3949C6.64133 14.4264 8.04028 15.0058 9.49897 15.0058C10.9577 15.0058 12.3566 14.4264 13.3881 13.3949C14.4195 12.3635 14.999 10.9645 14.999 9.50583Z" fill="white"/>
</svg>
