<svg width="19" height="19" viewBox="0 0 19 19" fill="none" xmlns="http://www.w3.org/2000/svg">
<g clip-path="url(#clip0_27_3142)">
<path d="M19.0036 9.49593C18.9657 9.57958 18.9277 9.66703 18.8935 9.75068C18.8024 9.96361 18.7188 10.1651 18.5973 10.3362C18.1264 11.0168 17.6213 11.7013 17.0554 12.4313C16.9263 12.5986 16.7554 12.6822 16.5579 12.6822C16.444 12.6822 16.3262 12.6518 16.2161 12.5948C15.9389 12.4503 15.7908 12.1385 15.8667 11.8571C15.9047 11.7127 16.0072 11.5682 16.106 11.4275C16.4212 10.9902 16.7516 10.5454 17.0668 10.1195C17.1617 9.99023 17.2567 9.86475 17.3516 9.73547C17.4656 9.58338 17.4732 9.42369 17.3706 9.26399C16.2085 7.45791 14.9135 6.12331 13.4134 5.18034C12.1791 4.40468 10.8689 4.01304 9.51692 4.01304C9.26627 4.01304 9.01183 4.02825 8.75738 4.05487C8.7194 4.05867 8.68522 4.05867 8.65104 4.05867C8.33963 4.05867 8.10037 3.91038 7.98644 3.65182C7.85732 3.35905 7.92568 3.04346 8.15734 2.86475C8.27887 2.7735 8.44597 2.70506 8.59408 2.68604C8.91309 2.65182 9.2321 2.63281 9.54351 2.63281C11.0702 2.63281 12.5779 3.07007 14.0172 3.93699C15.3958 4.76209 16.6187 5.89897 17.758 7.41228C18.0618 7.81532 18.339 8.22217 18.5821 8.6176C18.6998 8.81152 18.791 9.01684 18.8897 9.23357C18.9277 9.32863 18.9657 9.41228 19.0036 9.49593Z" fill="white"/>
<path d="M18.6934 17.7376C14.3184 13.3574 9.86751 8.90114 5.56469 4.59316C4.12915 3.1597 2.69741 1.72243 1.26187 0.285171C1.2087 0.231939 1.15554 0.178707 1.09857 0.136882C0.984638 0.0494297 0.836527 0 0.688415 0C0.532709 0 0.3808 0.0532319 0.259273 0.148289C0.103566 0.269962 0.012421 0.444867 0.00102786 0.631179C-0.0103653 0.840304 0.0731846 1.04563 0.240284 1.21293C1.34922 2.3308 2.48854 3.46768 3.46835 4.44487C3.48734 4.46008 3.51772 4.48289 3.5481 4.5019C3.57089 4.51331 3.58987 4.52852 3.61646 4.54373L3.81014 4.67681L3.63924 4.8403C3.49873 4.97338 3.36581 5.10266 3.23289 5.22433C2.95565 5.48289 2.69361 5.72624 2.45056 5.98099C1.53151 6.93536 0.749179 7.97338 0.13015 9.07224C-0.0407471 9.37643 -0.0407471 9.64258 0.13015 9.91635C0.190914 10.0152 0.255475 10.1141 0.316239 10.2167C0.502327 10.5171 0.696011 10.8327 0.901088 11.1217C2.03661 12.7414 3.28606 13.9772 4.7216 14.8935C5.45835 15.365 6.2217 15.7262 6.98883 15.9696C7.79015 16.2205 8.62185 16.3536 9.45735 16.3574H9.49913C10.9764 16.3574 12.4082 15.9658 13.7564 15.1977C13.8171 15.1635 13.8969 15.1255 13.9918 15.1255C14.1286 15.1255 14.2273 15.2053 14.2881 15.27C15.2337 16.2243 16.1983 17.1901 17.1325 18.1217L17.649 18.635C17.6604 18.6464 17.6756 18.6616 17.687 18.673C17.7516 18.7376 17.8123 18.8023 17.8807 18.8517C18.0022 18.9468 18.1465 18.9962 18.2984 18.9962C18.5947 18.9962 18.8529 18.8099 18.9441 18.5323C19.0314 18.2471 18.9593 18 18.6934 17.7376ZM7.61546 9.03802L7.72559 8.77947L7.92307 8.97719L8.8725 9.92776L10.0004 11.0608L10.1751 11.2357L9.96245 11.3612C9.84092 11.4335 9.68142 11.4677 9.49533 11.4677C9.05859 11.4677 8.53831 11.2662 8.20411 10.9696C7.63825 10.4639 7.3762 9.59696 7.61546 9.03802ZM12.8069 14.1711C12.6702 14.2243 12.5373 14.2814 12.412 14.3346C12.1309 14.4525 11.8651 14.5627 11.5841 14.6464C10.8663 14.8669 10.1447 14.9772 9.44216 14.9772C8.06359 14.9772 6.70401 14.5475 5.40519 13.6996C3.96585 12.7605 2.72779 11.4563 1.61886 9.71483C1.5543 9.61217 1.52771 9.42205 1.60746 9.29658C2.46955 7.92776 3.44936 6.80989 4.59627 5.88593C4.63425 5.85551 4.67222 5.84411 4.69501 5.8403C4.69881 5.8403 4.70261 5.8403 4.7064 5.8365L4.80894 5.80608L4.88869 5.87833C4.90009 5.88593 4.91148 5.89734 4.92287 5.90874C4.95326 5.93536 4.98364 5.96198 5.01782 5.9924C5.16213 6.13688 5.31024 6.28517 5.45456 6.42966C5.78876 6.76426 6.13435 7.11407 6.47994 7.45247C6.62805 7.59696 6.65084 7.74905 6.55969 7.93156C6.03561 8.95057 6.03561 10.0951 6.55969 11.0722C7.07998 12.0494 8.02941 12.6844 9.16113 12.8137C9.29025 12.8289 9.41938 12.8365 9.5485 12.8365C10.0688 12.8365 10.5663 12.711 11.0258 12.4601C11.0866 12.4259 11.1663 12.3916 11.2613 12.3916C11.417 12.3916 11.5233 12.4981 11.5575 12.5361C11.8613 12.8479 12.1727 13.1559 12.4993 13.4829C12.6247 13.6046 12.75 13.73 12.8791 13.8593L13.0842 14.0646L12.8069 14.1711Z" fill="white"/>
</g>
<defs>
<clipPath id="clip0_27_3142">
<rect width="19" height="19" fill="white"/>
</clipPath>
</defs>
</svg>
