<svg width="17" height="16" viewBox="0 0 17 16" fill="none" xmlns="http://www.w3.org/2000/svg">
<g clip-path="url(#clip0_27_1053)">
<path d="M5.59 4.66864C6.07272 4.19186 6.55629 3.71593 7.03774 3.23788C7.38538 2.89237 7.72963 2.54347 8.07685 2.19753C8.72725 1.55011 9.37892 0.904384 10.0302 0.257812C10.0979 0.349696 10.1436 0.465291 10.302 0.4293C10.3634 0.415327 10.4125 0.481381 10.4426 0.540661C10.4616 0.578346 10.4583 0.642283 10.4866 0.65668C10.6992 0.763383 10.7911 0.997538 10.9863 1.12033C10.9977 1.12753 11.0172 1.12668 11.0248 1.13642C11.1544 1.29986 11.2586 1.48787 11.5097 1.50353C11.5685 1.50734 11.5533 1.61235 11.5185 1.66952C11.4635 1.7597 11.4021 1.84566 11.3242 1.91849C11.3089 1.93204 11.2924 1.9439 11.2751 1.95448C11.1044 1.98539 10.9321 2.01122 10.775 2.09252C10.5997 2.12724 10.4769 2.03112 10.3571 1.92611C10.3024 1.82999 10.2186 1.77495 10.111 1.75335C9.96792 1.62463 9.86587 1.6801 9.74096 1.80247C9.00545 2.52314 8.31228 3.28404 7.5827 4.01021C6.31789 5.26864 5.06113 6.5351 3.79548 7.79268C3.55623 8.03022 3.30344 8.25548 3.04684 8.47524C2.8004 8.53918 2.67422 8.29063 2.45572 8.26565C2.52686 8.35541 2.48833 8.56289 2.73011 8.46847C2.81226 8.43629 2.87323 8.57559 2.80802 8.67044C2.72799 8.78731 2.59673 8.8504 2.48409 8.93169C2.44217 8.96218 2.38077 8.9444 2.35579 8.89443C2.31429 8.81187 2.1987 8.79154 2.17371 8.74031C2.07886 8.54722 1.95225 8.52648 1.7761 8.60185C1.76044 8.60862 1.73884 8.58703 1.72656 8.56882C2.06404 8.225 2.3994 7.87948 2.73942 7.53778C3.61679 6.65578 4.49627 5.7759 5.3732 4.89348C5.44646 4.81981 5.54216 4.7673 5.58958 4.66907L5.59 4.66864Z" fill="#FFD500"/>
<path d="M16.2327 6.46314C15.8698 6.83237 15.5094 7.20414 15.144 7.57082C14.3852 8.33214 13.6235 9.0905 12.8634 9.85055C12.0394 10.6741 11.2149 11.4973 10.3926 12.3229C9.74477 12.9733 9.10199 13.6292 8.45286 14.2787C8.19923 14.5328 7.93373 14.775 7.67374 15.0227C7.5683 14.9677 7.51326 14.869 7.46414 14.7695C7.42095 14.6814 7.4146 14.5612 7.50098 14.5222C7.71016 14.4286 7.78553 14.2101 7.95998 14.0806C7.87149 14.0878 7.84396 14.1576 7.80755 14.2131C7.77621 14.2605 7.74361 14.3054 7.69407 14.3338C7.60895 14.3829 7.51749 14.3965 7.43873 14.3312C7.31721 14.2309 7.41248 14.1288 7.44889 14.0285C7.56322 13.7706 7.79188 13.6106 7.98243 13.4205C8.1247 13.2782 8.27587 13.1448 8.40713 12.9915C8.74504 12.6956 9.05372 12.3695 9.37299 12.0541C9.65246 11.778 9.92812 11.4977 10.2067 11.2208C10.4909 10.9388 10.7729 10.6551 11.0562 10.3726C11.3445 10.0856 11.6299 9.79551 11.92 9.51012C12.1651 9.26919 12.409 9.02614 12.6496 8.78055C12.998 8.42445 13.3673 8.08825 13.6963 7.71267C13.9542 7.51578 14.1405 7.23971 14.4136 7.0589C14.5394 7.01656 14.6046 6.91536 14.6596 6.80442C14.7087 6.72567 14.7731 6.66385 14.8561 6.62193C14.895 6.60584 14.9285 6.58043 14.9649 6.55968C15.1106 6.47669 15.1792 6.5021 15.2363 6.65453C15.2689 6.74049 15.2469 6.87683 15.3786 6.88106C15.4938 6.88487 15.5937 6.81374 15.6483 6.70873C15.6911 6.62658 15.7525 6.60838 15.8351 6.60499C15.9096 6.60203 15.9604 6.57154 15.9096 6.48431C15.8791 6.43181 15.8232 6.37634 15.8952 6.32002C15.9536 6.27429 16.0159 6.30901 16.0722 6.33738C16.1336 6.36829 16.2052 6.38777 16.2323 6.46272L16.2327 6.46314Z" fill="#FCA800"/>
<path d="M5.46579 15.3836C5.18886 15.4493 4.94115 15.5742 4.75738 15.7922C4.63797 15.9341 4.55159 15.9277 4.44277 15.7914C4.38179 15.7152 4.30896 15.647 4.23401 15.5835C4.1218 15.4882 4.05321 15.4018 4.16372 15.249C4.23571 15.1503 4.19463 15.0432 4.10486 14.9479C4.00282 14.84 3.8851 14.8671 3.80084 14.9234C3.66618 15.0127 3.59547 14.9564 3.51417 14.862C3.45912 14.798 3.40069 14.7362 3.3376 14.6808C3.24571 14.5999 3.18474 14.53 3.29864 14.4115C3.38502 14.3217 3.35919 14.2078 3.27154 14.1299C3.18939 14.057 3.07549 13.9872 2.97302 14.06C2.82778 14.1625 2.74394 14.0956 2.65375 13.994C2.61182 13.947 2.56652 13.9025 2.52121 13.8585C2.4217 13.7623 2.31457 13.6823 2.44838 13.5201C2.51994 13.4333 2.46616 13.3135 2.38359 13.2356C2.30102 13.1573 2.19093 13.1149 2.09735 13.1928C1.96608 13.3021 1.89241 13.2373 1.80729 13.1403C1.75182 13.0772 1.68577 13.0239 1.62352 12.9667C1.53418 12.8846 1.47998 12.8109 1.57694 12.683C1.64893 12.5878 1.6231 12.4688 1.5291 12.3777C1.42916 12.2808 1.31187 12.2596 1.20559 12.3434C1.09719 12.4294 1.0396 12.3904 0.964231 12.3045C0.867264 12.194 0.760981 12.0902 0.650887 11.9924C0.557308 11.909 0.555614 11.8455 0.667401 11.7845C1.02648 11.5389 1.43933 11.4026 1.82762 11.2171C1.95634 11.1557 2.06432 11.0346 2.22565 11.049C2.29298 11.2074 2.41831 11.3192 2.53645 11.4373C3.35962 12.2596 4.18193 13.0832 5.00552 13.9055C5.15457 14.0541 5.2816 14.2417 5.53269 14.2205C5.56911 14.3268 5.60849 14.4318 5.64618 14.5381C5.65803 14.5711 5.66311 14.6223 5.68979 14.6312C5.92268 14.7087 5.97265 14.9852 6.18564 15.0796C6.28387 15.1232 6.2898 15.1724 6.22798 15.2553C6.0946 15.434 6.00906 15.4569 5.80369 15.3532C5.68471 15.2935 5.57419 15.3303 5.46494 15.3832L5.46579 15.3836Z" fill="#FE9F00"/>
<path d="M11.8135 0.489206C12.0273 0.35498 12.2395 0.218637 12.4054 0.0234375C12.5634 0.172907 12.7196 0.324493 12.8805 0.471422C12.947 0.532396 12.9415 0.578973 12.8894 0.649261C12.8056 0.762316 12.7963 0.882992 12.9055 0.991813C13.0182 1.10402 13.1422 1.11376 13.2642 1.01468C13.3285 0.962173 13.3717 0.968525 13.4247 1.02399C13.5309 1.1362 13.6372 1.24883 13.749 1.35511C13.81 1.41312 13.7952 1.45673 13.7511 1.51432C13.6427 1.65532 13.699 1.78447 13.8015 1.89371C13.9053 2.00422 14.0187 1.94071 14.1153 1.87508C14.1979 1.81876 14.2546 1.83189 14.3007 1.91107C14.3262 1.95468 14.3693 1.98136 14.3969 2.01735C14.4976 2.14861 14.7598 2.22102 14.5573 2.4755C14.5129 2.53139 14.5527 2.68086 14.6327 2.74056C14.7119 2.79942 14.8148 2.85362 14.9249 2.78333C15.0401 2.70923 15.1294 2.69822 15.2209 2.83964C15.2641 2.90612 15.3471 2.96752 15.4195 3.02045C15.5266 3.09836 15.5435 3.17669 15.4495 3.27493C15.3361 3.39349 15.3835 3.50019 15.4783 3.59969C15.5711 3.69751 15.7023 3.68946 15.7862 3.6306C15.9335 3.52644 15.9975 3.60901 16.0974 3.69497C16.2147 3.79532 16.2782 3.93928 16.4129 4.02651C16.5196 4.09553 16.4027 4.13406 16.3587 4.1764C16.0635 4.35466 15.7468 4.48931 15.4347 4.6337C15.3767 4.66038 15.3187 4.68748 15.2539 4.65487C15.237 4.64048 15.2289 4.62184 15.2315 4.60025C15.2412 4.50074 15.3856 4.40166 15.328 4.33857C15.2116 4.2107 15.1121 4.06589 14.9816 3.95071C14.7742 3.76737 14.5836 3.56836 14.3943 3.36596C14.2622 3.22496 14.1199 3.09243 13.9832 2.95524C13.7786 2.7503 13.5813 2.53435 13.3666 2.34381C13.1952 2.1918 13.0618 2.00507 12.8763 1.86576C12.7184 1.74721 12.599 1.57911 12.4491 1.44361C12.3538 1.35765 12.286 1.24036 12.167 1.17092C12.0921 1.12731 12.0561 1.04601 12.0286 0.964714C12.0129 0.91856 12.0053 0.849118 11.9574 0.84192C11.7051 0.802965 11.8003 0.631054 11.8143 0.489206H11.8135Z" fill="#FFCD00"/>
<path d="M2.24458 11.069C1.9088 11.229 1.57428 11.3921 1.2368 11.5475C1.05007 11.6334 0.856978 11.7067 0.666855 11.7854C0.768056 11.6427 0.876033 11.5039 0.969613 11.3561C1.18175 11.0216 1.12544 10.6883 0.934044 10.3695C0.833689 10.2022 0.710046 10.0494 0.562689 9.91812C0.500021 9.86223 0.466993 9.80422 0.547869 9.72589C0.942936 9.34226 1.33377 8.95483 1.72629 8.56866C1.77541 8.5729 1.82623 8.58009 1.86772 8.54537C2.01127 8.42597 2.12941 8.36669 2.13745 8.64064C2.13872 8.68764 2.17471 8.73126 2.24162 8.70882C2.27634 8.69738 2.30725 8.71432 2.33859 8.73549C2.40041 8.77741 2.34451 8.94001 2.45376 8.89597C2.57444 8.8477 2.67352 8.7393 2.77346 8.64827C2.80818 8.61651 2.81411 8.55215 2.77134 8.51404C2.72349 8.47127 2.67988 8.50261 2.64685 8.54368C2.62059 8.57671 2.59815 8.6199 2.54734 8.58983C2.43682 8.52378 2.50415 8.3434 2.35341 8.28751C2.33012 8.27904 2.44614 8.20621 2.48467 8.15032C2.49483 8.1355 2.51939 8.13084 2.56131 8.1084C2.52913 8.27862 2.66463 8.25575 2.7417 8.31334C2.83951 8.38617 2.91065 8.4717 3.04488 8.44629C3.08299 8.54241 3.00042 8.58306 2.95257 8.63429C2.83951 8.75624 2.71756 8.86972 2.60323 8.9904C2.51855 9.07423 2.43979 9.16569 2.34875 9.24149C2.21536 9.35242 2.20181 9.44134 2.32207 9.58743C2.50457 9.8093 2.64473 10.0557 2.64304 10.3674C2.64177 10.5986 2.51982 10.7629 2.41142 10.9415C2.36569 10.997 2.32334 11.0576 2.24416 11.0694L2.24458 11.069Z" fill="#FFCF00"/>
<path d="M15.2425 4.63809C15.5796 4.55213 15.8654 4.35058 16.1826 4.2189C16.2423 4.19434 16.2948 4.16766 16.3596 4.17655C16.2808 4.28283 16.1999 4.38784 16.1233 4.49582C15.7773 4.98318 15.8997 5.37189 16.2275 5.79192C16.2444 5.81394 16.2685 5.83003 16.2872 5.85078C16.4819 6.06503 16.4633 6.26969 16.2313 6.46475C16.1792 6.44485 16.1271 6.4241 16.0746 6.40462C16.02 6.3843 15.9658 6.29114 15.9124 6.35423C15.8485 6.4296 15.9683 6.44273 15.995 6.49142C16.0593 6.60787 15.9823 6.65487 15.8942 6.66334C15.793 6.67307 15.724 6.66334 15.6651 6.79079C15.6236 6.88013 15.4784 6.97498 15.348 6.95677C15.2091 6.93772 15.2159 6.8018 15.1947 6.69086C15.171 6.56595 15.1138 6.48507 14.9855 6.60914C14.9487 6.6447 14.9093 6.67096 14.8559 6.66757C14.8017 6.48761 14.676 6.35169 14.5722 6.20222C14.308 5.82114 14.3216 5.38882 14.6044 5.05051C14.6921 4.98106 14.7162 4.85996 14.8098 4.79433C14.9652 4.77316 15.0876 4.66011 15.2425 4.63809Z" fill="#FDA600"/>
<path d="M5.46484 15.3835C5.58383 15.256 5.70366 15.1819 5.85737 15.3441C5.93444 15.4254 6.02463 15.3996 6.09576 15.3242C6.14319 15.2742 6.17706 15.2111 6.30283 15.1548C6.06951 15.129 5.9429 15.0507 5.92427 14.861C5.92216 14.8398 5.89379 14.8085 5.87304 14.8038C5.53767 14.731 5.55334 14.4469 5.50634 14.2004C5.64735 13.9294 6.08052 13.7812 6.40149 13.893C6.61236 13.9667 6.7775 14.1085 6.94433 14.2478C6.99896 14.2597 6.96593 14.4337 7.08618 14.3236C7.20898 14.2068 7.29621 14.0395 7.49607 14.0306C7.51555 14.1272 7.30807 14.2305 7.48676 14.3126C7.63962 14.3829 7.73023 14.2656 7.80095 14.1437C7.83186 14.0903 7.84625 14.0209 7.91485 14.0001C7.97075 13.9836 8.03341 13.9836 8.06263 14.0433C8.0982 14.1166 8.04231 14.1496 7.98345 14.1547C7.87928 14.1636 7.84371 14.2199 7.82847 14.3164C7.81238 14.4189 7.71795 14.4528 7.63454 14.49C7.46135 14.5675 7.42875 14.6615 7.53969 14.8102C7.59008 14.8779 7.63919 14.9444 7.67349 15.0214C7.36946 15.3305 7.06078 15.6358 6.76395 15.9517C6.67503 16.0461 6.63099 15.978 6.57679 15.9327C6.46416 15.8378 6.35914 15.7341 6.24524 15.6409C6.01912 15.4555 5.75998 15.3636 5.46527 15.383L5.46484 15.3835Z" fill="#FEA300"/>
<path d="M15.2438 4.6371C15.1167 4.72644 15.0028 4.84924 14.8224 4.80478C14.717 4.78318 14.6624 4.69469 14.5942 4.62652C13.7033 3.73817 12.8145 2.84813 11.9249 1.95893C11.7843 1.81835 11.6287 1.7945 11.4582 1.88737C11.3998 1.91913 11.3448 1.9801 11.2668 1.92929C11.3337 1.83953 11.399 1.74891 11.4675 1.66042C11.5446 1.56133 11.5277 1.49994 11.3968 1.50587C11.2186 1.51391 11.1673 1.4233 11.0682 1.27806C10.9632 1.12394 10.7913 0.971926 10.6363 0.844051C10.5445 0.768258 10.4204 0.757249 10.4128 0.598888C10.409 0.520977 10.3531 0.430364 10.2629 0.468049C10.0152 0.571788 10.0507 0.389715 10.0312 0.257183C10.3128 -0.0781708 10.3158 -0.0764771 10.6402 0.209336C10.887 0.426976 11.144 0.609473 11.5074 0.57814C11.6246 0.567977 11.6966 0.453229 11.816 0.48795C11.8622 0.615825 11.8215 0.802979 12.0392 0.812718C12.1421 1.16289 12.4838 1.30728 12.6803 1.56599C12.8175 1.74722 13.0482 1.8319 13.1283 2.05336C13.1308 2.05971 13.1334 2.06902 13.1384 2.07156C13.3679 2.17911 13.4484 2.45349 13.68 2.55554C13.7321 2.5784 13.7579 2.60635 13.7723 2.65758C13.7816 2.69104 13.7939 2.73888 13.8189 2.74989C14.0514 2.85532 14.1229 3.13902 14.3609 3.23471C14.4041 3.25207 14.4308 3.27325 14.4447 3.31855C14.457 3.35836 14.4697 3.41763 14.4985 3.42991C14.7356 3.53069 14.7979 3.82582 15.0422 3.91262C15.0994 3.93294 15.1095 3.97444 15.1303 4.0189C15.1536 4.06929 15.1896 4.11375 15.2167 4.16244C15.2658 4.25178 15.472 4.20605 15.4153 4.37373C15.3827 4.46942 15.303 4.54945 15.2446 4.63668L15.2438 4.6371Z" fill="#FFCD00"/>
<path d="M2.57812 8.95127C2.73353 8.78232 2.8885 8.61379 3.04391 8.44485C3.68499 7.81183 4.32989 7.18177 4.96716 6.54451C5.95842 5.55285 6.94546 4.55695 7.93291 3.5619C8.53292 2.95725 9.1359 2.35556 9.72617 1.74117C9.86802 1.59381 9.97642 1.55909 10.1183 1.71534C10.15 1.73905 10.1915 1.75853 10.1581 1.80976C9.94001 1.74117 9.83076 1.90927 9.71304 2.03037C9.43823 2.31195 9.16215 2.59225 8.89623 2.8823C8.83526 2.94878 8.79503 3.01695 8.82594 3.10968C8.82806 3.177 8.78572 3.22104 8.74549 3.26677C7.34815 4.66069 5.95673 6.06054 4.55558 7.45107C4.5217 7.47563 4.48613 7.49341 4.44252 7.48452C4.31506 7.41719 4.24562 7.51331 4.17491 7.58656C3.74469 8.02947 3.28738 8.44442 2.84912 8.87886C2.77418 8.95296 2.6988 9.0368 2.5794 8.95211L2.57812 8.95127Z" fill="#DE8400"/>
<path d="M8.80785 3.1117C8.63763 3.00626 8.7943 2.91015 8.84257 2.86399C9.17878 2.54304 9.49467 2.20006 9.81182 1.86344C9.96468 1.70126 10.0396 1.75165 10.1713 1.79654C10.2738 1.75165 10.3115 1.84777 10.3741 1.88969C10.5037 1.97649 10.6252 2.08404 10.7997 2.05356C10.9492 1.98835 11.1262 2.02476 11.2672 1.9278V1.92864C11.3853 1.89773 11.4857 1.82745 11.575 1.75335C11.6648 1.67882 11.7164 1.67374 11.8011 1.75927C12.7945 2.75898 13.7913 3.7553 14.7872 4.75247C14.802 4.76729 14.8113 4.78677 14.8232 4.80413C14.7656 4.88839 14.7554 5.00526 14.6517 5.05861C14.5137 5.05226 14.4082 5.20681 14.2575 5.13821C14.241 5.10434 14.2367 5.06411 14.2575 5.03659C14.39 4.86468 14.3007 4.75332 14.1728 4.62672C13.4055 3.86794 12.6421 3.10535 11.8837 2.33725C11.7478 2.19964 11.6398 2.14586 11.4493 2.25426C11.0173 2.50069 10.5774 2.4647 10.1709 2.18948C9.99474 2.07007 9.89185 2.1086 9.76143 2.24833C9.52134 2.5062 9.26686 2.75136 9.01491 2.9978C8.95859 3.05284 8.91286 3.13922 8.80785 3.11127V3.1117Z" fill="#DE8100"/>
<path d="M11.2644 1.9295C11.1424 2.09718 10.9629 2.04975 10.7969 2.05526C10.929 1.92527 11.0962 1.92654 11.2644 1.9295Z" fill="#FFCD00"/>
<path d="M10.3739 1.88985C10.3061 1.85894 10.2384 1.8276 10.1711 1.79669C10.1545 1.7696 10.1376 1.74292 10.1211 1.71582C10.2435 1.71836 10.3387 1.76028 10.3739 1.88985Z" fill="#FFCD00"/>
<path d="M13.7209 7.72664C13.6735 7.86425 13.5519 7.94512 13.4575 8.0404C12.9316 8.57137 12.3913 9.08795 11.862 9.61554C11.4813 9.99493 11.1142 10.3879 10.7344 10.7681C10.3296 11.1733 9.91461 11.5684 9.50896 11.9728C9.21721 12.2632 8.93182 12.5605 8.64642 12.8577C8.58163 12.925 8.51134 12.9797 8.42793 13.0195C8.37076 12.983 8.34917 12.9318 8.25474 13.019C7.96214 13.2896 7.72798 13.6224 7.38712 13.8405C7.31937 13.8841 7.25712 13.9565 7.15973 13.9167C7.12501 13.8028 7.22071 13.7545 7.27999 13.6944C7.69411 13.2748 8.11331 12.8607 8.52786 12.4415C9.97601 11.0001 11.4174 9.5516 12.8651 8.10941C12.9401 8.03489 12.9955 7.91802 13.1332 7.93454C13.1797 7.95783 13.1535 8.09163 13.2441 8.03066C13.3567 7.95529 13.2094 7.91633 13.1975 7.85536C13.3512 7.57632 13.5566 7.35021 13.8505 7.21387C13.9195 7.32904 13.834 7.39128 13.7666 7.4603C13.6913 7.53737 13.5829 7.58775 13.5608 7.71097C13.6138 7.74103 13.6718 7.68641 13.72 7.72664H13.7209Z" fill="#D36900"/>
<path d="M7.15928 13.9069C7.47559 13.7795 7.70298 13.5385 7.90707 13.2819C8.02648 13.132 8.19755 13.0465 8.31019 12.875C8.39233 12.7501 8.37963 12.9695 8.4279 13.019C8.21703 13.3196 7.90834 13.5241 7.66698 13.7951C7.60135 13.8688 7.5336 13.9382 7.49465 14.0306C7.3511 14.125 7.21433 14.2266 7.11398 14.3697C7.02844 14.4036 6.98694 14.346 6.94502 14.2888C6.82053 14.2003 6.70155 14.1021 6.57028 14.0246C6.27938 13.8531 5.9889 13.8633 5.70816 14.056C5.63957 14.103 5.57309 14.1521 5.50534 14.2003C5.3872 14.2888 5.2987 14.2795 5.18479 14.1644C4.23545 13.2032 3.27763 12.2505 2.32278 11.2948C2.26096 11.233 2.16696 11.1796 2.2436 11.0683C2.28637 11.0263 2.32956 10.9844 2.37232 10.9425C2.4405 10.8837 2.52476 10.8549 2.60606 10.821C2.70006 10.782 2.74918 10.818 2.74495 10.9213C2.66365 11.0827 2.71192 11.197 2.84107 11.324C3.62866 12.0985 4.40906 12.881 5.18564 13.6664C5.30717 13.7892 5.39821 13.8243 5.5625 13.7261C6.0033 13.4632 6.44833 13.497 6.87389 13.7773C6.96323 13.8362 7.05766 13.8764 7.15844 13.9069H7.15928Z" fill="#D36400"/>
<path d="M13.7203 7.72714C13.6492 7.75254 13.578 7.77752 13.5018 7.80462C13.4904 7.67167 13.5331 7.58656 13.6314 7.50695C13.7224 7.43328 13.8643 7.38162 13.8456 7.22029C13.8152 7.13349 13.8867 7.09369 13.9307 7.04415C13.996 6.97047 14.0688 6.90357 14.1382 6.83413C14.331 6.64133 14.3583 6.4268 14.22 6.19052C14.0358 5.86194 14.0252 5.52659 14.1797 5.18446C14.2013 5.15694 14.2263 5.13619 14.2648 5.14254C14.366 5.10062 14.4681 5.0604 14.568 5.01636C14.618 4.99434 14.6455 5.00154 14.6493 5.05955C14.3521 5.45884 14.3673 5.84331 14.6718 6.25488C14.7594 6.37302 14.9415 6.46533 14.856 6.66688C14.7878 6.7088 14.7323 6.76384 14.6904 6.83201C14.5888 6.9023 14.5519 7.03695 14.4325 7.08988C14.1725 7.27703 14.0036 7.56581 13.7207 7.72756L13.7203 7.72714Z" fill="#D36800"/>
<path d="M7.90667 14.6625C7.89354 14.7299 7.85077 14.7739 7.78641 14.787C7.72205 14.8001 7.67505 14.7629 7.67208 14.6994C7.66827 14.6215 7.71697 14.5643 7.79234 14.5579C7.8512 14.5529 7.88423 14.6079 7.90709 14.6625H7.90667Z" fill="#FEA300"/>
<path d="M14.4336 7.08947C14.5153 6.99928 14.5496 6.86209 14.6915 6.83203C14.6402 6.95228 14.5856 7.06957 14.4336 7.08947Z" fill="#FDA600"/>
<path d="M2.7123 10.9421C2.72204 10.8376 2.67503 10.8168 2.59924 10.8769C2.53022 10.932 2.45696 10.9498 2.37312 10.9421C2.4142 10.766 2.57214 10.647 2.58992 10.4527C2.6238 10.0834 2.45104 9.80398 2.22407 9.55077C2.12541 9.4411 2.11906 9.3759 2.23 9.28147C2.35195 9.17773 2.46332 9.06129 2.57934 8.95078C2.8008 8.96687 2.88125 8.76913 3.00574 8.65268C3.4241 8.26059 3.82636 7.85114 4.23836 7.45185C4.30357 7.38833 4.38699 7.32016 4.44797 7.46455C4.44246 7.54331 4.38106 7.5848 4.33449 7.63604C3.83314 8.18861 3.30596 8.71577 2.772 9.23659C2.63989 9.36531 2.60686 9.46312 2.71823 9.6308C2.91385 9.92593 3.01421 10.2532 2.91089 10.6136C2.82832 10.7127 2.89353 10.9019 2.7123 10.9417V10.9421Z" fill="#DF8200"/>
<path d="M6.94533 14.2891C7.00165 14.3162 7.05796 14.3428 7.11428 14.3699C7.09396 14.414 7.06686 14.4593 7.01181 14.4402C6.94237 14.4161 6.94533 14.3496 6.94533 14.2891Z" fill="#FE9F00"/>
<path d="M4.52967 7.42433C4.76044 7.18806 4.9891 6.94967 5.22241 6.71594C6.21664 5.72004 7.21172 4.72499 8.20764 3.73078C8.3749 3.56395 8.54724 3.40178 8.71704 3.23749C8.96221 3.09734 9.0054 3.10665 9.17562 3.33996C9.20103 3.37468 9.22813 3.40559 9.26836 3.42295C9.28783 3.43142 9.31451 3.43184 9.32679 3.44582C9.48558 3.6262 9.67824 3.77355 9.83195 3.95816C9.85736 3.98865 9.85693 4.05216 9.8942 4.06402C10.1682 4.15336 10.2677 4.38455 10.3676 4.62082C10.3968 4.69026 10.4735 4.75547 10.4205 4.83042C10.3604 4.91595 10.2804 4.85159 10.2139 4.82068C10.1089 4.77156 10.0128 4.74531 9.9484 4.87784C9.72228 5.14799 9.46017 5.38299 9.21162 5.63112C9.14048 5.69378 9.19087 5.74925 9.23109 5.79202C9.43053 6.00289 9.62404 6.22053 9.86498 6.38778C9.89038 6.40302 9.91113 6.42335 9.92765 6.44748C9.96914 6.57112 10.0547 6.65073 10.1771 6.69307C10.2211 6.72271 10.2562 6.75955 10.2799 6.8074C10.3278 7.04282 10.2656 7.16138 10.0479 7.18043C9.84635 7.19822 9.70577 7.28629 9.60499 7.45354C9.55163 7.48403 9.49278 7.48615 9.43392 7.48742C9.06934 7.47853 9.00286 7.43449 8.96179 7.17535C8.96433 7.06399 8.96179 6.95094 8.99651 6.84296C9.0452 6.69307 9.03038 6.55376 8.9368 6.42504C8.92706 6.40726 8.92071 6.3882 8.91648 6.3683C8.94654 6.27007 8.9385 6.18199 8.84704 6.11763C8.65225 6.13965 8.49516 6.3285 8.50913 6.54021C8.5248 6.7786 8.56079 7.01572 8.58747 7.25326C8.59382 7.30916 8.60652 7.36462 8.60398 7.42094C8.60102 7.49038 8.61076 7.5738 8.53623 7.60809C8.45409 7.6462 8.41089 7.57253 8.36516 7.52002C8.25973 7.36886 8.09925 7.27062 7.98534 7.12751C7.89684 7.01572 7.81808 7.06484 7.74186 7.14614C7.6703 7.22278 7.57672 7.28841 7.68893 7.40781C7.813 7.53992 7.9684 7.64493 8.04801 7.81642C8.06029 7.84902 8.07765 7.87782 8.09628 7.90746C8.19706 8.06582 8.18647 8.11155 8.00736 8.18438C7.82655 8.25763 7.64998 8.33342 7.50347 8.46596C7.39549 8.50999 7.26888 8.49729 7.17276 8.58197C7.1355 8.615 7.07114 8.62008 7.03938 8.57689C6.99407 8.51507 7.05928 8.48035 7.09443 8.44097C7.21341 8.30717 7.39168 8.26398 7.52591 8.15347C7.542 8.14161 7.55936 8.13145 7.57715 8.12298C7.67538 8.09334 7.69698 8.05015 7.60086 7.98664C7.56148 7.96165 7.51787 7.94641 7.4751 7.92863C7.43021 7.9083 7.39676 7.87485 7.36755 7.83674C7.2439 7.68854 7.15667 7.83674 7.05674 7.8757C7.0343 7.89391 7.01059 7.90957 6.98561 7.92312C6.84291 7.97817 6.72519 8.06836 6.62399 8.18141C6.57445 8.23138 6.52956 8.286 6.4796 8.33427C6.36739 8.44267 6.34494 8.55784 6.4326 8.68995C6.44996 8.76659 6.45165 8.84196 6.41312 8.91352C6.364 8.97618 6.28778 9.00286 6.22765 9.05113C6.13746 9.12354 6.04388 9.1193 5.95792 9.04859C5.85037 8.95967 5.72715 8.88515 5.66025 8.75473C5.63018 8.69588 5.58699 8.65015 5.52178 8.63321C5.41719 8.60611 5.34733 8.54598 5.32107 8.43928C5.31769 8.42573 5.31472 8.40541 5.30498 8.40117C5.08607 8.30378 5.00773 8.05142 4.80194 7.94302C4.63214 7.85368 4.48182 7.58142 4.52798 7.42433H4.52967Z" fill="#FFD500"/>
<path d="M9.90988 4.89074C9.91369 4.67098 10.0602 4.70782 10.1919 4.74296C10.2558 4.76033 10.3109 4.81114 10.3841 4.85475C10.4167 4.74889 10.3663 4.69046 10.3138 4.64092C10.2376 4.56851 10.2109 4.4906 10.2046 4.38221C10.1978 4.26111 10.0619 4.21453 9.96874 4.18066C9.85356 4.13874 9.78327 4.09216 9.78158 3.96555C9.78031 3.88087 9.73542 3.83895 9.65074 3.83218C9.61009 3.82879 9.54106 3.82371 9.53429 3.80296C9.46696 3.59844 9.21459 3.52604 9.1532 3.39266C9.03379 3.1331 8.89194 3.20339 8.71875 3.23726C8.74797 3.19534 8.77718 3.15385 8.80683 3.11193C9.14388 2.78208 9.48432 2.45604 9.81545 2.12069C9.91792 2.01695 9.98144 2.0034 10.1119 2.09698C10.5624 2.42047 11.04 2.47171 11.5223 2.15625C11.6388 2.08004 11.718 2.10036 11.8137 2.1969C12.6474 3.03698 13.4845 3.87367 14.3238 4.70824C14.4064 4.79039 14.4428 4.85306 14.3568 4.95468C14.3136 5.00591 14.2954 5.07916 14.2662 5.14226C14.2527 5.15665 14.2391 5.17105 14.2256 5.18502C13.8123 5.48608 13.3342 5.66561 12.8837 5.89595C12.6084 6.03695 12.3315 6.17753 12.0499 6.30752C11.9538 6.35198 11.8628 6.40788 11.7514 6.39898C11.7086 6.38967 11.6765 6.36172 11.6426 6.33674C11.4805 6.21818 11.3261 6.23215 11.1793 6.37866C11.1345 6.42354 11.0904 6.46885 11.0447 6.51289C10.8622 6.68988 10.8203 6.69072 10.6467 6.52178C10.4476 6.32827 10.4472 6.29694 10.642 6.09793C10.7258 6.0124 10.8105 5.92771 10.8956 5.84345C10.9841 5.75622 10.9528 5.68593 10.8783 5.60972C10.8004 5.52969 10.7301 5.5136 10.6458 5.59998C10.5476 5.70075 10.451 5.80407 10.3452 5.8968C10.2021 6.02213 10.1267 5.99969 9.9374 5.81169C9.8218 5.69694 9.82434 5.59786 9.9391 5.48819C10.0306 5.40055 10.1191 5.30951 10.208 5.21932C10.2719 5.15411 10.3562 5.0906 10.2753 4.98728C10.2097 4.90344 10.1377 4.81876 10.0102 4.87592C9.97805 4.89032 9.94629 4.90641 9.9103 4.88947L9.90988 4.89074Z" fill="#FFD400"/>
<path d="M4.53129 7.4248C4.544 7.51372 4.58803 7.58444 4.62953 7.66065C4.72057 7.82791 4.84845 7.89184 4.99538 7.96298C5.01952 7.97441 5.039 8.02353 5.03773 8.05402C5.0318 8.19417 5.10378 8.24371 5.23208 8.23863C5.24521 8.23821 5.26807 8.24244 5.27104 8.25006C5.3481 8.46855 5.57676 8.54561 5.69871 8.70694C5.80203 8.84328 5.92906 8.93517 6.04635 9.0461C6.0942 9.09099 6.13612 9.06516 6.17465 9.02747C6.23605 8.9665 6.30634 8.92246 6.39442 8.9123C6.42152 8.93559 6.42914 8.96608 6.42702 8.99995C6.42364 9.02154 6.41474 9.04102 6.40162 9.05838C6.20895 9.17906 6.02476 9.31964 5.78213 9.32514C5.67119 9.26501 5.60005 9.33149 5.52552 9.40093C5.46921 9.45344 5.40908 9.50171 5.35573 9.5576C5.09616 9.75407 4.79171 9.8684 4.50462 10.0132C4.02317 10.2563 3.53876 10.493 3.04715 10.7144C2.93875 10.7631 2.82315 10.8105 2.88031 10.6039C2.95145 10.1987 2.83543 9.84214 2.58772 9.525C2.51235 9.42846 2.5657 9.37426 2.62879 9.31159C2.94764 8.9936 3.2631 8.67264 3.58407 8.35719C3.8792 8.06714 4.12649 7.73052 4.4483 7.46588C4.47582 7.45233 4.50335 7.43835 4.53087 7.4248H4.53129Z" fill="#FFD400"/>
<path d="M2.88039 10.6044C2.88801 10.6742 2.8698 10.7517 2.99641 10.6882C3.63622 10.366 4.279 10.0501 4.92474 9.74014C5.06913 9.6707 5.2148 9.60846 5.34013 9.50684C5.53238 9.68129 5.70852 9.87183 5.8923 10.0552C5.9393 10.1022 6.00451 10.1475 5.97402 10.233C5.92575 10.2635 5.87705 10.2474 5.82793 10.2351C5.76061 10.2144 5.6882 10.1902 5.62934 10.2436C5.50104 10.3605 5.33251 10.4261 5.22454 10.5679C5.2076 10.5794 5.18897 10.5853 5.16907 10.5874C5.04288 10.5519 5.03865 10.4756 5.10216 10.3799C5.1335 10.3329 5.17584 10.2948 5.21564 10.255C5.30584 10.1653 5.35453 10.0802 5.23046 9.9726C5.12206 9.8786 5.03992 9.82779 4.91966 9.96795C4.6855 10.2406 4.41365 10.4773 4.15874 10.7305C4.0495 10.8394 4.07109 10.908 4.17145 11.0062C4.26714 11.1002 4.33151 11.14 4.44711 11.0278C4.68762 10.7949 4.75494 10.8012 4.98826 11.0557C5.26857 11.3614 5.58785 11.6299 5.85503 11.9483C5.95962 12.0732 6.046 12.0601 6.1489 11.9483C6.2086 11.8835 6.26534 11.801 6.37502 11.8158C6.5084 11.942 6.48807 12.1096 6.49061 12.2676C6.49273 12.4056 6.51263 12.5216 6.67523 12.5508C6.68878 12.5534 6.71038 12.5572 6.71334 12.5661C6.79295 12.807 7.07792 12.8633 7.17828 13.0873C7.25619 13.2609 7.49839 13.3071 7.6322 13.1737C7.78548 13.0213 7.97645 12.904 8.0802 12.7041C8.11068 12.6601 8.14837 12.6233 8.19453 12.5957C8.3224 12.5724 8.40243 12.4103 8.55868 12.4687C8.15345 12.8803 7.74738 13.2918 7.34299 13.7043C7.27905 13.769 7.22104 13.8398 7.16007 13.9075C7.08681 13.9532 7.02711 13.949 6.95004 13.8944C6.41016 13.5099 5.99477 13.4981 5.4587 13.8529C5.37613 13.9075 5.33632 13.8846 5.28128 13.8296C4.41408 12.9616 3.54772 12.0923 2.67629 11.2285C2.54926 11.1027 2.67629 11.0346 2.71271 10.9431C2.83212 10.8614 2.76564 10.6882 2.88039 10.6039V10.6044Z" fill="#FDA700"/>
<path d="M8.55984 12.4694C8.44551 12.5253 8.33161 12.5816 8.21728 12.6375C8.14064 12.35 8.20924 12.1869 8.45441 12.0802C8.50056 12.0603 8.55264 12.0459 8.56746 11.9943C8.606 11.8609 8.64792 11.7538 8.82872 11.8177C8.877 11.8347 8.88504 11.747 8.88504 11.7017C8.88546 11.5344 8.96338 11.4349 9.12894 11.4108C9.19246 11.4015 9.23141 11.3858 9.23226 11.3096C9.2348 11.1525 9.33939 11.0869 9.4787 11.0729C9.54984 11.0657 9.5727 11.0441 9.57228 10.9709C9.57186 10.8129 9.67687 10.7477 9.81703 10.735C9.88012 10.7291 9.91611 10.7329 9.91188 10.6474C9.90298 10.4653 10.0275 10.4001 10.1833 10.3929C10.3628 10.3848 10.5462 10.4014 10.5767 10.1515C10.5818 10.1109 10.6292 10.0804 10.6694 10.0715C10.8909 10.0224 10.9239 9.85345 10.9209 9.6701C10.918 9.49904 10.9959 9.4008 11.1606 9.38048C11.2427 9.37032 11.272 9.33814 11.2648 9.26065C11.2626 9.2399 11.2698 9.21873 11.2758 9.19841C11.3266 9.03073 11.5756 9.08747 11.5908 9.00405C11.6204 8.84273 11.6602 8.73645 11.8241 8.70469C11.8902 8.69199 11.9418 8.69072 11.9427 8.59714C11.9444 8.42735 12.0655 8.36426 12.2116 8.36214C12.4051 8.3596 12.5872 8.35833 12.6087 8.10131C12.6096 8.09115 12.6159 8.08353 12.6181 8.08268C12.8484 8.00689 12.9052 7.73378 13.1203 7.64105C13.1397 7.63258 13.1694 7.63088 13.177 7.61564C13.307 7.35608 13.575 7.20492 13.7021 6.94493C13.7228 6.90217 13.6716 6.85432 13.6885 6.80224C13.7131 6.72687 13.7736 6.7129 13.838 6.70908C13.935 6.70358 13.9743 6.65616 13.9697 6.55919C13.9663 6.48763 13.976 6.41396 14.0594 6.38643C14.1539 6.3551 14.2127 6.41184 14.2746 6.49695C14.2415 6.38728 14.1852 6.29582 14.2686 6.20605C14.3165 6.27296 14.3571 6.34748 14.4139 6.40549C14.5062 6.49991 14.4786 6.56935 14.3961 6.6515C14.2093 6.83781 14.0294 7.03047 13.8465 7.22016C13.6186 7.41494 13.4048 7.62326 13.2138 7.85488C13.2024 7.90145 13.1732 7.92982 13.1266 7.94083C12.646 8.41422 12.1629 8.88507 11.6852 9.361C10.6838 10.359 9.68534 11.3596 8.68475 12.3589C8.64538 12.3982 8.60049 12.4321 8.55815 12.4689L8.55984 12.4694Z" fill="#FCA800"/>
<path d="M13.1279 7.94142C13.144 7.89993 13.1728 7.87071 13.2147 7.85547C13.2685 7.90924 13.4531 7.87452 13.34 8.04008C13.3011 8.09682 13.2333 8.129 13.1761 8.1163C13.0758 8.09386 13.1474 8.00028 13.1275 7.94185L13.1279 7.94142Z" fill="#D36800"/>
<path d="M14.2691 6.20532C14.2738 6.28831 14.2577 6.37257 14.3191 6.4471C14.375 6.51527 14.3618 6.59021 14.2738 6.61266C14.173 6.63806 14.2115 6.56269 14.2128 6.50849C14.2141 6.43736 14.1594 6.41619 14.0963 6.4183C14.0307 6.42042 14.0117 6.467 14.0176 6.51993C14.0362 6.68125 14.0176 6.80193 13.805 6.75704C13.7589 6.74731 13.7042 6.79177 13.7267 6.82818C13.7999 6.94759 13.675 7.00433 13.6611 7.09113C13.6378 7.23594 13.5645 7.31512 13.4239 7.34095C13.3892 7.3473 13.3435 7.36212 13.3473 7.40108C13.368 7.61321 13.205 7.63565 13.0733 7.73008C12.9264 7.83551 12.8633 8.05442 12.6503 8.10396C12.6418 8.10608 12.6313 8.12937 12.6334 8.14038C12.6986 8.45456 12.4496 8.4029 12.2933 8.40671C12.0207 8.41349 11.958 8.46853 12.005 8.74291C11.6819 8.73487 11.6226 8.79415 11.6607 9.08674C11.3432 9.06937 11.2763 9.1367 11.3321 9.41658C10.9955 9.42039 10.954 9.44961 10.9532 9.87304C10.9532 10.0123 10.9062 10.0416 10.8058 10.0733C10.6974 10.1076 10.603 10.1182 10.6068 10.299C10.6098 10.4375 10.4065 10.4459 10.2786 10.4459C9.97842 10.4451 9.92718 10.4925 9.97037 10.7771C9.64856 10.7643 9.5825 10.8304 9.64306 11.1238C9.53889 11.1154 9.43472 11.0976 9.34326 11.1632C9.22893 11.2454 9.28737 11.3508 9.30007 11.4503C9.0079 11.4469 9.00578 11.4558 8.94819 11.756C8.93846 11.8068 8.92745 11.9923 8.76358 11.8492C8.6954 11.7899 8.63697 11.8631 8.63993 11.9521C8.64374 12.06 8.60733 12.1248 8.4858 12.1303C8.32701 12.1375 8.24444 12.2163 8.25503 12.3886C8.26011 12.4699 8.23005 12.5537 8.21607 12.6363C8.17585 12.6524 8.14748 12.6808 8.13138 12.721C8.05686 12.76 7.98572 12.8078 7.90612 12.8349C7.71811 12.8988 7.60675 12.8544 7.50978 12.682C7.49962 12.6638 7.49496 12.6342 7.47844 12.6283C7.24259 12.5465 7.18754 12.2599 6.95973 12.1701C6.91146 12.1511 6.87547 12.1159 6.86065 12.0668C6.81958 11.9309 6.7243 11.8551 6.59177 11.8267C6.41943 11.7895 6.45373 11.6214 6.38682 11.5176C6.34236 11.4215 6.27885 11.3436 6.17976 11.2987C6.13996 11.2487 6.09846 11.2013 6.04511 11.1649C5.99895 11.0739 5.93332 11.0023 5.83974 10.9591C5.80121 10.9087 5.75844 10.8626 5.70594 10.8257C5.66105 10.7305 5.58653 10.664 5.49633 10.6136C5.4434 10.6509 5.53106 10.4629 5.4252 10.5713C5.36083 10.6373 5.27911 10.6462 5.21094 10.5624C5.22322 10.3591 5.45018 10.3811 5.53571 10.252C5.61363 10.1347 5.72584 10.133 5.84567 10.1813C5.81561 10.3706 5.85414 10.4099 6.14208 10.4832C6.16028 10.4904 6.1768 10.5006 6.19035 10.5145C6.13191 10.7008 6.17637 10.7478 6.48125 10.8219C6.49988 10.8287 6.51555 10.8397 6.5291 10.8537C6.54858 10.9142 6.47574 10.9494 6.48887 11.0235C6.57314 11.0252 6.65444 10.9583 6.74209 10.9917C6.81534 11.0146 6.86234 11.0667 6.90003 11.1302C6.95211 11.278 7.1054 11.1992 7.19601 11.2615C7.24174 11.2746 7.27096 11.438 7.3349 11.2758C7.34803 11.2496 7.36666 11.2284 7.39206 11.2136C7.56948 11.1514 7.4035 11.1175 7.37978 11.0718C7.31923 10.9968 7.32389 10.9227 7.38021 10.8482C7.40223 10.8215 7.43017 10.8012 7.456 10.7783C7.49919 10.7398 7.54196 10.6907 7.50809 10.6356C7.45685 10.5518 7.41789 10.6411 7.37682 10.6598C7.30356 10.6936 7.23243 10.7025 7.15917 10.664C7.14435 10.6513 7.13292 10.6361 7.12445 10.6187C7.09862 10.4599 6.96354 10.401 6.85133 10.321C6.80306 10.23 6.78994 10.0936 6.62818 10.1508C6.59854 10.1389 6.5816 10.1161 6.57059 10.0877C6.56721 9.86288 6.41223 9.75151 6.24243 9.65116C6.22846 9.62703 6.21618 9.60204 6.2094 9.57495C6.19374 9.5144 6.09211 9.46867 6.16367 9.39499C6.22846 9.32766 6.30976 9.28575 6.40334 9.35392C6.51258 9.5254 6.6629 9.66175 6.79798 9.81122C6.90723 9.88235 6.97413 10.0035 7.09566 10.0598C7.19432 10.1301 7.30483 10.1241 7.41705 10.111C7.55763 10.241 7.7685 10.2063 7.9184 10.3375C8.0179 10.4248 7.99885 10.2812 8.02341 10.2313C8.06872 10.1495 8.14197 10.1085 8.22962 10.1309C8.3359 10.158 8.39857 10.0996 8.46675 10.0416C8.56202 10.0306 8.65094 10.0284 8.72928 9.94333C8.83598 9.82688 8.87155 9.73077 8.7369 9.61856C8.71869 9.56732 8.71996 9.51694 8.74283 9.46697C8.8309 9.39457 8.87917 9.29421 8.93041 9.19598C9.02526 9.15829 9.09174 9.2036 9.15102 9.27093C9.17219 9.29718 9.176 9.36662 9.18574 9.3573C9.27932 9.26415 9.4 9.30014 9.5101 9.29421C9.50586 9.20318 9.42964 9.21461 9.39238 9.17989C9.33056 9.10283 9.22343 9.06091 9.20819 8.947C9.2175 8.88942 9.25307 8.85554 9.30558 8.83607C9.4216 8.80854 9.50883 8.86952 9.59648 8.93007C9.64814 8.96564 9.69641 9.01264 9.76755 8.99655C9.80566 8.98765 9.82894 8.96055 9.8281 8.92118C9.82725 8.88561 9.79846 8.87672 9.76924 8.87418C9.72012 8.86952 9.67016 8.87629 9.62188 8.86232C9.56345 8.84581 9.49231 8.80177 9.51518 8.75223C9.61892 8.52485 9.43896 8.47912 9.30727 8.39951C9.28186 8.38385 9.26112 8.36395 9.24502 8.33854C9.20734 8.23904 9.15822 8.15096 9.03796 8.1353C8.98715 8.10947 8.9537 8.07051 8.94015 8.01462C8.93295 7.96762 8.93888 7.92401 8.96937 7.88548C9.00917 7.85668 9.05278 7.85457 9.09852 7.86684C9.24375 7.99303 9.40932 7.97101 9.57742 7.93121C9.68498 7.93502 9.78872 7.96 9.89161 7.98964C10.0127 8.08322 10.2304 8.02775 10.2816 8.25259C10.271 8.00065 10.6026 8.14292 10.6301 7.93375C10.5361 7.88844 10.4827 8.03494 10.3947 7.96847C10.3366 7.92443 10.3286 7.86515 10.3409 7.7991C10.3519 7.7432 10.4014 7.70721 10.4235 7.63438C10.1177 7.58188 9.81243 7.55097 9.50756 7.51498C9.48723 7.5099 9.46818 7.50143 9.45081 7.48957C9.43938 7.47899 9.4343 7.46713 9.43472 7.454C9.43515 7.44045 9.43684 7.43368 9.43981 7.43368C9.49739 7.43156 9.55498 7.42987 9.61257 7.42775C9.66423 7.36932 9.72986 7.33121 9.80015 7.30115C10.0212 7.20672 10.2304 7.08859 10.4476 6.98612C10.4912 6.98188 10.528 6.99882 10.5623 7.0238C10.8232 7.27066 10.8198 7.26727 11.0738 7.02253C11.2445 6.85824 11.3931 6.67405 11.5629 6.50934C11.6294 6.47504 11.6667 6.4056 11.7314 6.36919C12.0778 6.27519 12.3755 6.07491 12.6956 5.92417C13.208 5.68324 13.7153 5.4313 14.2246 5.18359C14.0777 5.5308 14.1057 5.87039 14.2683 6.20405L14.2691 6.20532Z" fill="#FCA800"/>
<path d="M11.7302 6.37017C11.726 6.45655 11.6722 6.50525 11.6006 6.54039C11.2174 6.64625 10.9036 6.89692 10.5424 7.04935C10.5149 7.03453 10.4874 7.01971 10.4603 7.00531C10.3447 6.97991 10.3036 6.87913 10.2465 6.79487C10.2185 6.76692 10.1901 6.73855 10.1622 6.71061C10.0508 6.65218 9.96615 6.56749 9.90771 6.45613C9.89374 6.44216 9.87977 6.42818 9.86579 6.41421C9.63079 6.22748 9.42203 6.0128 9.2192 5.79262C9.17178 5.74139 9.12224 5.6838 9.18787 5.61012C9.41399 5.35649 9.65365 5.11641 9.90771 4.89072C10.0817 4.76073 10.2867 4.82806 10.3752 5.03384C10.4091 5.11218 10.3553 5.13631 10.3201 5.17272C10.2028 5.29425 10.086 5.41704 9.96064 5.53052C9.86622 5.61563 9.86368 5.67703 9.9581 5.76933C10.1825 5.98824 10.1783 5.9929 10.3989 5.77145C10.4586 5.71175 10.5268 5.65797 10.5763 5.59065C10.7004 5.42255 10.8003 5.43652 10.9371 5.58938C11.0391 5.7037 11.065 5.77357 10.9371 5.87604C10.8444 5.95056 10.7745 6.05557 10.6788 6.12459C10.4971 6.25585 10.531 6.34943 10.6775 6.49466C10.8164 6.63227 10.9011 6.62635 11.0095 6.48238C11.0472 6.43242 11.098 6.39177 11.1429 6.34689C11.3396 6.15013 11.5354 6.15804 11.7302 6.3706V6.37017Z" fill="#DD8300"/>
<path d="M9.44014 7.43525C9.44183 7.44753 9.4431 7.45981 9.44437 7.47209C9.22715 7.56185 8.98706 7.5843 8.79567 7.75663C8.71098 7.83285 8.5505 7.76891 8.43617 7.7181C8.3248 7.66856 8.31337 7.57794 8.38451 7.47886C8.44294 7.49538 8.44675 7.61521 8.52594 7.57159C8.58818 7.53687 8.55727 7.4543 8.55134 7.39545C8.52297 7.11726 8.49079 6.83949 8.45268 6.56257C8.42982 6.39447 8.63222 6.05149 8.79355 6.00619C8.89729 5.97697 8.8867 6.05742 8.89475 6.11797C8.96123 6.19461 8.92566 6.28692 8.93498 6.37245C9.01628 6.53081 9.01374 6.70272 9.00696 6.87379C9.00357 6.96186 8.98283 7.05036 9.02009 7.13589C9.02432 7.40011 9.05269 7.42001 9.44098 7.4344L9.44014 7.43525Z" fill="#DC8400"/>
<path d="M8.38511 7.47868C8.40332 7.55109 8.33938 7.66372 8.47234 7.68108C8.63071 7.70183 8.82083 7.81488 8.92965 7.61672C9.00672 7.47656 9.0588 7.40628 9.2231 7.49816C9.2756 7.5278 9.37003 7.48292 9.4454 7.47191L9.44455 7.4736C9.49621 7.58496 9.39628 7.59682 9.33743 7.62815C9.19261 7.70521 9.03636 7.76195 8.90848 7.86908C8.87249 7.8911 8.83269 7.90211 8.79246 7.91142C8.6252 7.95249 8.49267 8.07868 8.31948 8.10535C8.29916 8.1062 8.27926 8.10366 8.25935 8.099C8.15604 8.02109 8.09083 7.90888 8.00402 7.81615C7.87995 7.68447 7.76182 7.54643 7.6297 7.42321C7.53316 7.33302 7.53485 7.2657 7.63521 7.18821C7.66824 7.16281 7.69999 7.13317 7.72371 7.09971C7.82745 6.95448 7.92865 6.95533 8.02985 7.10056C8.12978 7.2441 8.29789 7.32371 8.38511 7.4791V7.47868Z" fill="#DD8400"/>
<path d="M6.40169 8.99803C6.39958 8.96924 6.39746 8.94045 6.39534 8.91165C6.39703 8.82739 6.39873 8.74313 6.40042 8.65929C6.36993 8.47214 6.46182 8.33495 6.58292 8.20961C6.73705 8.12705 6.90685 8.06438 6.98646 7.88781C7.00043 7.87553 7.01441 7.86325 7.02838 7.85097C7.15795 7.85563 7.2744 7.73326 7.41159 7.81117C7.44038 7.83912 7.46875 7.86706 7.49755 7.89459C7.64787 8.03389 7.5094 8.09275 7.41837 8.1533C7.3413 8.20453 7.23163 8.21046 7.20453 8.32352C7.15329 8.44292 6.99959 8.48908 6.98477 8.63389C6.95555 8.68682 6.9492 8.75075 6.90812 8.7986C6.75272 8.89853 6.61256 9.03826 6.40169 8.99803Z" fill="#DF8300"/>
<path d="M10.248 6.79437C10.3391 6.84476 10.4064 6.91843 10.4618 7.00481C10.1875 7.1636 9.91435 7.32365 9.61328 7.42824C9.62514 7.19578 9.80129 7.15724 9.97659 7.13565C10.2374 7.10347 10.2764 7.06197 10.2484 6.79395L10.248 6.79437Z" fill="#FFD400"/>
<path d="M6.94213 8.61602C6.9849 8.49661 7.09076 8.42336 7.15597 8.32047C7.27283 8.20403 7.40241 8.12019 7.57813 8.1494C7.45068 8.34079 7.18391 8.35096 7.03148 8.59273C7.20593 8.51906 7.33169 8.40304 7.49429 8.44665C7.49599 8.45724 7.49768 8.46824 7.4998 8.47925C7.39055 8.63804 7.21017 8.68546 7.04714 8.75067C6.92265 8.80021 6.90698 8.71637 6.94213 8.61602Z" fill="#FFD400"/>
<path d="M8.00252 7.81641C8.11262 7.87442 8.17656 7.97816 8.2532 8.06962C8.26929 8.11916 8.23796 8.15176 8.20535 8.17462C8.01142 8.31097 7.79546 8.40285 7.57147 8.47653C7.54437 8.48542 7.51811 8.46679 7.49694 8.44816L7.49609 8.44689C7.5973 8.26354 7.78954 8.22332 7.96145 8.15134C8.08636 8.09925 8.22398 8.05691 8.02751 7.91422C8.00676 7.89897 8.01057 7.85028 8.00295 7.81683L8.00252 7.81641Z" fill="#FFD400"/>
<path d="M9.19111 5.61035C9.17714 5.70816 9.24235 5.76278 9.30121 5.82418C9.48921 6.02192 9.70347 6.19468 9.86904 6.41444C9.82839 6.40639 9.7691 6.41232 9.75005 6.38776C9.56713 6.14768 9.29528 5.99525 9.12675 5.74077C9.05688 5.63576 9.10727 5.62263 9.19111 5.61035Z" fill="#FFD400"/>
<path d="M9.01888 7.13635C8.95663 6.88526 8.93123 6.63036 8.93377 6.37207C9.07138 6.48174 9.12685 6.61385 9.06418 6.78872C9.02438 6.89966 9.00956 7.01695 9.01888 7.13593V7.13635Z" fill="#FFD400"/>
<path d="M6.98681 7.8877C6.98596 8.14175 6.77466 8.16377 6.60614 8.23363C6.58327 8.20484 6.58454 8.17647 6.60952 8.1498C6.70268 8.01515 6.82421 7.92199 6.98681 7.88812V7.8877Z" fill="#DE8600"/>
<path d="M7.57842 8.14816C7.43784 8.20533 7.29683 8.26206 7.15625 8.31923C7.16514 8.20702 7.22781 8.16425 7.33621 8.13419C7.43699 8.10624 7.58138 8.06517 7.49458 7.89453C7.53438 7.90977 7.57461 7.92502 7.61441 7.93984C7.68301 8.02325 7.72027 8.10159 7.57842 8.14859V8.14816Z" fill="#DE8600"/>
<path d="M6.60939 8.14941C6.60812 8.17736 6.60727 8.20531 6.606 8.23325C6.47516 8.34504 6.47389 8.51949 6.40063 8.6588C6.28334 8.59698 6.28969 8.50128 6.35532 8.41617C6.42985 8.31963 6.49506 8.20996 6.60939 8.14941Z" fill="#FFD400"/>
<path d="M7.41055 7.81061C7.27887 7.78478 7.16835 7.96219 7.02734 7.85083C7.15014 7.78901 7.256 7.56968 7.41055 7.81061Z" fill="#DE8600"/>
<path d="M9.91016 6.45703C10.0147 6.52224 10.0994 6.60692 10.1646 6.71151C10.0029 6.70389 9.91778 6.6192 9.91016 6.45703Z" fill="#FFD400"/>
<path d="M8.93362 6.37264C8.8646 6.29643 8.90144 6.2037 8.8934 6.11816C9.0344 6.18295 9.02551 6.27144 8.93362 6.37264Z" fill="#FFD400"/>
<path d="M7.57812 8.14918C7.67848 8.09498 7.62428 8.01368 7.61454 7.94043C7.68398 7.97261 7.75724 8.01368 7.73564 8.10091C7.71574 8.17924 7.63402 8.14071 7.57855 8.1496L7.57812 8.14918Z" fill="#FFD400"/>
<path d="M11.7613 3.73696C11.7131 3.85722 11.6453 3.89363 11.5983 3.9419C11.4496 4.09462 11.4518 4.24761 11.6051 4.40089C11.9189 4.71423 12.228 5.03307 12.5489 5.33878C12.665 5.4493 12.6734 5.52636 12.5456 5.62163C12.5007 5.65466 12.4609 5.69658 12.4257 5.74019C12.3537 5.82826 12.2966 5.81471 12.2208 5.73765C11.8685 5.37943 11.5069 5.03011 11.1584 4.6685C11.0508 4.55714 10.986 4.54571 10.8734 4.66342C10.632 4.9162 10.5236 4.89207 10.342 4.58508C10.306 4.52453 10.3301 4.49659 10.3661 4.4606C10.6795 4.14684 10.9941 3.83393 11.3057 3.51847C11.368 3.45538 11.4158 3.45115 11.4831 3.51255C11.5712 3.593 11.669 3.66244 11.7626 3.73696H11.7613Z" fill="#DD8400"/>
<path d="M6.39822 8.99785C6.56548 8.92713 6.73232 8.85684 6.89957 8.78613C6.9072 8.79291 6.91482 8.79968 6.92286 8.80646C6.97495 8.94365 7.00162 9.08888 7.09562 9.21125C7.44877 9.67067 7.9552 9.63553 8.23848 9.12784C8.27617 9.06009 8.30073 8.98557 8.33884 8.91824C8.37186 8.86023 8.4032 8.77809 8.49593 8.85134C8.6598 8.9953 8.77244 9.16002 8.714 9.39333C8.51075 9.90482 8.12542 10.1441 7.58385 10.1517C7.52838 10.1542 7.47799 10.1314 7.42633 10.1174C7.265 10.1089 7.12484 10.0391 6.9868 9.96453C6.94276 9.92091 6.87544 9.91372 6.83394 9.86629C6.66795 9.6749 6.50578 9.4814 6.40246 9.24597C6.38298 9.17738 6.34106 9.10963 6.39018 9.03722C6.39272 9.0241 6.39526 9.01097 6.39822 8.99785Z" fill="#D36700"/>
<path d="M7.15647 10.609C7.15647 10.6217 7.15774 10.6348 7.15944 10.6475C7.19967 10.6822 7.25768 10.6933 7.28732 10.7424C7.37666 10.9117 7.24243 10.9956 7.14843 11.0887C7.07052 11.1658 6.98371 11.2471 6.86261 11.1531C6.83466 11.0976 6.79232 11.0566 6.73727 11.0278C6.69789 10.9901 6.64412 10.9693 6.61236 10.9223C6.55096 10.8258 6.4578 10.7606 6.37904 10.6814C6.34263 10.6509 6.30494 10.6217 6.27445 10.5849C6.21221 10.4866 6.11736 10.4201 6.03648 10.3401C6.00557 10.3067 5.95307 10.2851 5.96916 10.2245C5.82434 10.0247 5.62744 9.87393 5.46273 9.6927C5.41234 9.63723 5.33696 9.59743 5.33993 9.50639C5.42081 9.43018 5.5038 9.35608 5.58129 9.2769C5.65115 9.20576 5.70917 9.19814 5.76083 9.29299C5.92088 9.33152 6.01362 9.46024 6.12456 9.56483C6.27869 9.74902 6.49083 9.88112 6.60643 10.0996C6.62083 10.1127 6.63565 10.1254 6.65004 10.1386C6.76734 10.1237 6.79528 10.2148 6.83297 10.2935C6.94052 10.3986 7.06501 10.4866 7.15605 10.6086L7.15647 10.609Z" fill="#D36700"/>
<path d="M6.09877 9.59023C5.98656 9.49157 5.87393 9.39249 5.76172 9.29383C6.00181 9.28156 6.17372 9.10033 6.39349 9.03809C6.40958 9.10795 6.42567 9.17782 6.44176 9.24726C6.46251 9.30315 6.44134 9.34465 6.39688 9.3781C6.19786 9.37048 6.18685 9.38572 6.26307 9.55001C6.27408 9.5733 6.26815 9.60463 6.26984 9.63215C6.20167 9.66476 6.15297 9.61649 6.09877 9.59023Z" fill="#FCA800"/>
<path d="M6.34773 11.8293C6.31047 11.8611 6.27109 11.8911 6.23637 11.9254C5.97892 12.1774 5.984 12.1727 5.74222 11.9136C5.45597 11.607 5.16084 11.3085 4.86782 11.0083C4.76027 10.8986 4.6561 10.8309 4.52992 11.0015C4.47148 11.0799 4.39484 11.22 4.29364 11.1798C4.17931 11.1345 4.09335 11.0121 4.00274 10.916C3.96082 10.8715 3.99893 10.8233 4.03492 10.7873C4.35292 10.4684 4.67304 10.1517 4.98892 9.83076C5.05032 9.76851 5.09224 9.77783 5.1439 9.83626C5.17142 9.8676 5.2053 9.89427 5.23833 9.9201C5.4276 10.0662 5.42972 10.1051 5.2578 10.2804C5.21334 10.3257 5.16804 10.3698 5.12442 10.4159C5.06006 10.4841 5.09817 10.5281 5.16168 10.565C5.23875 10.6022 5.30862 10.6492 5.36366 10.7161C5.43353 10.8415 5.55463 10.9152 5.65795 11.0066C5.7528 11.1362 5.86586 11.2475 5.99458 11.3428C6.09028 11.4482 6.16015 11.5787 6.29269 11.6485C6.33672 11.701 6.41209 11.7442 6.34773 11.8293Z" fill="#D46500"/>
<path d="M6.34768 11.8289C6.35699 11.7548 6.2884 11.7218 6.26172 11.6663C6.28204 11.5901 6.33159 11.5368 6.39468 11.4932C6.45523 11.4987 6.53272 11.5292 6.50435 11.5863C6.42051 11.7548 6.55897 11.7493 6.64281 11.7879C6.67415 11.8023 6.72835 11.7968 6.7402 11.8179C6.86342 12.0407 7.13273 12.1296 7.23817 12.3654C7.2551 12.4027 7.25044 12.4539 7.30295 12.4603C7.47444 12.481 7.53457 12.5903 7.59597 12.7427C7.64763 12.8706 7.80769 12.8176 7.91143 12.7749C7.98468 12.7444 8.05116 12.716 8.12992 12.7207C8.01602 12.9667 7.77466 13.0929 7.59682 13.2783C7.47995 13.3999 7.14374 13.2754 7.12003 13.1043C7.10266 12.9807 7.05905 12.9282 6.93625 12.9303C6.70802 12.9341 6.8558 12.6089 6.65679 12.5987C6.42432 12.5869 6.42855 12.4327 6.43787 12.2714C6.44549 12.1431 6.42474 12.0195 6.39087 11.8975C6.38409 11.8726 6.3625 11.8518 6.34768 11.8289Z" fill="#FCA800"/>
<path d="M5.96684 10.225C5.99648 10.2529 6.0257 10.2813 6.05534 10.3092C6.07905 10.3816 6.1684 10.4278 6.14003 10.5209C5.99013 10.5701 5.87453 10.4494 5.75936 10.4053C5.63698 10.3583 5.8288 10.2686 5.84362 10.1826L5.96684 10.225Z" fill="#FCA800"/>
<path d="M5.33344 10.7345C5.26357 10.6913 5.2081 10.6338 5.16406 10.5652C5.18015 10.5643 5.19582 10.5635 5.21191 10.5626C5.32836 10.6024 5.42194 10.5732 5.49985 10.4678L5.50832 10.605C5.49392 10.707 5.45962 10.7824 5.33344 10.7345Z" fill="#FCA800"/>
<path d="M8.29877 8.06578C8.46983 8.02767 8.60872 7.91801 8.76793 7.85449C8.84585 7.90234 8.92503 7.94807 8.97457 8.02937C9.0021 8.05647 9.0292 8.08357 9.05672 8.11066C9.15072 8.15978 9.21889 8.23431 9.2714 8.32534L9.31078 8.36472C9.57966 8.50911 9.59448 8.74665 9.31247 8.86902C9.28495 8.89697 9.25743 8.92449 9.22948 8.95244C9.04613 9.05152 9.01226 8.85378 8.90979 8.79238C8.72093 8.58787 8.50583 8.41003 8.31316 8.2089C8.2831 8.16402 8.25769 8.11871 8.29877 8.06663V8.06578Z" fill="#D36800"/>
<path d="M8.89453 7.8523C8.97414 7.68335 9.16511 7.68377 9.29383 7.5902C9.34507 7.55294 9.44034 7.57199 9.44415 7.47376C9.76554 7.45639 10.0763 7.55336 10.396 7.56352C10.4896 7.56649 10.5701 7.60925 10.4536 7.71257C10.4231 7.73967 10.4011 7.7765 10.3749 7.80911C10.2254 8.06613 10.1441 8.10339 9.90993 8.02167C9.79264 8.04453 9.68636 7.9806 9.57203 7.98017C9.41578 7.95943 9.24852 7.99923 9.10667 7.89803C9.06433 7.89676 9.02156 7.89591 8.97922 7.89464C8.9428 7.89676 8.91401 7.88406 8.89495 7.8523H8.89453Z" fill="#D46800"/>
<path d="M8.93534 8.74707C9.04543 8.79873 9.06237 8.98377 9.23047 8.95159C9.25884 9.04559 9.41001 9.0422 9.40154 9.16584C9.36343 9.30134 9.27874 9.34368 9.14748 9.29287C9.07677 9.2645 9.00647 9.23655 8.93576 9.20818C8.8968 9.3043 8.87394 9.41143 8.76639 9.46224V9.63161C8.71134 9.80352 8.52841 9.88524 8.46998 10.055C8.44711 10.1753 8.3764 10.2303 8.26165 10.1799C8.17146 10.1406 8.11599 10.1986 8.04697 10.224C7.8471 10.2803 7.68281 10.2358 7.58203 10.0986C8.11133 10.1084 8.46024 9.8412 8.68424 9.38179C8.76554 9.26915 8.71642 9.14424 8.71642 9.02441C8.81889 8.9554 8.88579 8.85801 8.93576 8.74707H8.93534Z" fill="#FDA700"/>
<path d="M10.543 7.05006C10.59 6.88196 10.7627 6.89635 10.8766 6.83326C11.0816 6.71978 11.27 6.5665 11.5101 6.52162C11.5474 6.51442 11.5766 6.50722 11.6011 6.54152C11.3941 6.75578 11.1769 6.96114 10.9833 7.18725C10.8517 7.34095 10.7585 7.32401 10.6505 7.17709C10.6179 7.13263 10.579 7.0924 10.543 7.05048V7.05006Z" fill="#D56A00"/>
<path d="M9.91058 8.02213C10.1236 8.07802 10.2371 7.9167 10.3755 7.80957C10.3857 7.89849 10.3675 8.03653 10.5161 7.89764C10.5652 7.85149 10.597 7.76003 10.6723 7.86208C10.7261 7.93448 10.7282 8.00773 10.6414 8.05897C10.597 8.08522 10.5754 8.15043 10.5 8.12799C10.3759 8.09073 10.3222 8.13264 10.3658 8.26687C10.3772 8.30159 10.3709 8.33843 10.3277 8.35113C10.2896 8.36214 10.2409 8.34647 10.2383 8.31641C10.2218 8.12079 10.0736 8.10724 9.93133 8.07887C9.92074 8.07675 9.91693 8.04161 9.91016 8.02213H9.91058Z" fill="#FCA800"/>
<path d="M9.31377 8.86801C9.45096 8.70146 9.45054 8.53322 9.3125 8.36328C9.42979 8.37937 9.5094 8.45898 9.59239 8.53181C9.63685 8.57076 9.6703 8.61649 9.61229 8.67281C9.58054 8.70372 9.51575 8.72404 9.5636 8.78628C9.60298 8.8371 9.6648 8.82058 9.719 8.82778C9.7804 8.83625 9.86255 8.7613 9.90023 8.86419C9.92775 8.93914 9.89388 8.99927 9.83375 9.04711C9.75372 9.11105 9.68343 9.06193 9.625 9.01748C9.53015 8.94549 9.44546 8.86038 9.31377 8.86801Z" fill="#FCA800"/>
<path d="M6.8637 11.1519C7.11014 11.1392 7.3045 10.9224 7.24056 10.7318C7.36929 10.6764 7.44212 10.6971 7.4129 10.858C7.36505 10.9287 7.36505 10.999 7.4129 11.0697C7.49886 11.1261 7.46964 11.1828 7.4129 11.2391C7.39893 11.2531 7.38453 11.2675 7.37056 11.2815C7.31424 11.3378 7.2575 11.3678 7.20118 11.2815C7.08432 11.2493 6.90901 11.3699 6.86328 11.1519H6.8637Z" fill="#FDA700"/>
<path d="M8.47158 10.0553C8.44152 9.82407 8.65832 9.76522 8.76799 9.63184C8.83489 9.67926 8.96827 9.68519 8.91958 9.81179C8.84971 9.99429 8.62656 10.1065 8.47158 10.0553Z" fill="#FCA800"/>
<path d="M6.39515 11.4949C6.39134 11.5838 6.33206 11.63 6.26219 11.6677C6.10679 11.6253 6.05682 11.4792 5.96875 11.3704C5.97383 11.3624 5.97934 11.3543 5.98442 11.3463C6.04666 11.3124 6.09282 11.2273 6.18343 11.2832C6.32698 11.2811 6.39727 11.3514 6.39515 11.4949Z" fill="#FDA700"/>
<path d="M5.96766 11.3693C5.82369 11.2876 5.71105 11.1741 5.62891 11.0306C5.63399 11.0225 5.63949 11.0145 5.64457 11.0064C5.70682 10.9726 5.75297 10.8875 5.84359 10.9433C5.98713 10.9412 6.05743 11.0115 6.05531 11.1551C6.11417 11.2601 6.01381 11.3016 5.97104 11.3663L5.96723 11.3693H5.96766Z" fill="#FDA700"/>
<path d="M7.58274 10.0984C7.7229 10.1958 7.891 10.189 8.04768 10.2237C8.03243 10.2915 8.15057 10.3758 8.0354 10.4253C7.94986 10.4617 7.87068 10.4278 7.82622 10.3351C7.80716 10.2953 7.76313 10.2551 7.72629 10.2716C7.56877 10.3427 7.51076 10.1971 7.41294 10.1391C7.40363 10.1289 7.40024 10.1187 7.40363 10.1086C7.40702 10.0984 7.4104 10.0938 7.41337 10.0938C7.46968 10.095 7.52642 10.0967 7.58274 10.098V10.0984Z" fill="#FCA800"/>
<path d="M5.33203 10.7351C5.42773 10.7423 5.44975 10.6504 5.50691 10.6055C5.65046 10.6034 5.72075 10.6737 5.71863 10.8172C5.77749 10.9222 5.67713 10.9637 5.63437 11.0285C5.63437 11.0285 5.63098 11.0315 5.63055 11.0315C5.51115 10.9527 5.3892 10.8765 5.33203 10.7351Z" fill="#FDA700"/>
<path d="M6.09766 9.59048C6.1599 9.58286 6.21537 9.60318 6.26873 9.6324C6.53253 9.73529 6.60705 9.83903 6.6062 10.1007C6.42286 9.94446 6.24967 9.77806 6.09766 9.59048Z" fill="#FDA700"/>
<path d="M6.30891 10.562C6.33813 10.5904 6.36735 10.6183 6.39656 10.6467C6.42028 10.7191 6.50962 10.7652 6.48125 10.8584C6.32924 10.9041 6.20729 10.7902 6.09635 10.739C5.97609 10.6831 6.12514 10.587 6.18527 10.5201C6.23989 10.4947 6.27038 10.5413 6.30934 10.5624L6.30891 10.562Z" fill="#FCA800"/>
<path d="M6.39453 9.37693C6.40935 9.33332 6.42417 9.28971 6.43942 9.24609C6.58042 9.44468 6.721 9.64369 6.86201 9.84228C6.83321 9.86853 6.80442 9.86599 6.77562 9.84228C6.63293 9.70001 6.45042 9.58992 6.39453 9.37651V9.37693Z" fill="#FDA700"/>
<path d="M9.14697 9.29207C9.25198 9.2908 9.34429 9.26327 9.40103 9.16504C9.48106 9.17817 9.61614 9.13032 9.58819 9.28106C9.5649 9.4047 9.46794 9.39581 9.37647 9.33272C9.31635 9.29122 9.28501 9.34245 9.25749 9.37929C9.21769 9.43222 9.18 9.49531 9.10929 9.43349C9.04154 9.37379 9.14231 9.34203 9.14697 9.29207Z" fill="#FCA800"/>
<path d="M7.41295 10.8586C7.4066 10.7468 7.33292 10.7269 7.24061 10.7324C7.20165 10.7155 7.17244 10.6888 7.16016 10.6469C7.23934 10.6384 7.32911 10.674 7.39178 10.5948C7.43073 10.5457 7.45317 10.4471 7.53871 10.544C7.60053 10.6143 7.60519 10.6994 7.55057 10.7714C7.51965 10.812 7.45995 10.8303 7.41337 10.8586H7.41295Z" fill="#FCA800"/>
<path d="M6.64662 10.9009C6.67542 10.9436 6.7419 10.9597 6.73682 11.0271C6.68177 11.0317 6.62122 11.016 6.57633 11.0597C6.52467 11.1096 6.46074 11.1414 6.41543 11.0757C6.36843 11.0084 6.40569 10.9428 6.47767 10.9017C6.49503 10.8916 6.50774 10.8733 6.52256 10.859C6.57718 10.8335 6.60767 10.8801 6.64662 10.9013V10.9009Z" fill="#FCA800"/>
<path d="M7.41168 10.0946C7.41168 10.1098 7.41125 10.1247 7.41083 10.1399C7.28676 10.2149 7.17582 10.1852 7.07208 10.0976C7.03312 10.0455 6.95648 10.0116 6.98782 9.9248C7.12924 9.98154 7.27025 10.0379 7.41168 10.0946Z" fill="#FDA700"/>
<path d="M7.15558 10.6091C6.99679 10.5609 6.91634 10.4241 6.81641 10.3093C6.83123 10.2941 6.84605 10.2941 6.86087 10.3089C7.01796 10.3513 7.15473 10.4135 7.15558 10.6091Z" fill="#FDA700"/>
<path d="M9.10547 7.89896C9.26637 7.89388 9.42051 7.92648 9.57083 7.9811C9.40526 8.01201 9.22869 8.10643 9.10547 7.89896Z" fill="#FCA800"/>
<path d="M6.85973 10.3095C6.84491 10.3095 6.83009 10.3095 6.81527 10.3099C6.75641 10.2566 6.72974 10.171 6.64844 10.1393C6.67257 10.0944 6.70221 10.0466 6.76065 10.0749C6.85804 10.1224 6.86693 10.2138 6.86016 10.3091L6.85973 10.3095Z" fill="#FCA800"/>
<path d="M5.6337 11.028C5.60491 10.9348 5.715 10.8971 5.71797 10.8167C5.81197 10.8074 5.85431 10.8497 5.845 10.9437C5.76455 10.9463 5.72686 11.0568 5.6337 11.028Z" fill="#FCA800"/>
<path d="M5.97355 11.3659C5.94475 11.2727 6.05485 11.235 6.05781 11.1546C6.15182 11.1453 6.19416 11.1876 6.18484 11.2816C6.10439 11.2841 6.0667 11.3947 5.97355 11.3659Z" fill="#FCA800"/>
<path d="M6.98949 9.92505C7.01023 9.98602 7.08052 10.0233 7.07375 10.0978C6.93698 10.0576 6.87855 9.92589 6.77734 9.84375C6.80614 9.84375 6.83493 9.84375 6.86373 9.84375C6.90565 9.87085 6.94757 9.89795 6.98906 9.92505H6.98949Z" fill="#FCA800"/>
<path d="M6.30883 10.5626C6.26733 10.5487 6.22626 10.5347 6.18476 10.5203H6.14242C6.10431 10.4538 6.03995 10.3975 6.05773 10.3086C6.15766 10.3772 6.24447 10.4585 6.3084 10.5626H6.30883Z" fill="#FDA700"/>
<path d="M6.64477 10.9015L6.5207 10.8592H6.47835C6.44025 10.7927 6.37588 10.7364 6.39367 10.6475C6.4936 10.7161 6.5804 10.7974 6.64434 10.9015H6.64477Z" fill="#FDA700"/>
<path d="M8.89445 7.85254C8.92832 7.85508 8.9605 7.86058 8.97871 7.89488C8.97786 7.93934 8.97702 7.98422 8.97617 8.02868C8.87454 8.00921 8.8195 7.93468 8.76953 7.85423C8.81103 7.85381 8.85295 7.85339 8.89445 7.85296V7.85254Z" fill="#FCA800"/>
<path d="M7.19922 11.2822C7.25554 11.3233 7.31228 11.2839 7.36859 11.2822C7.36478 11.3512 7.37368 11.441 7.27374 11.433C7.19498 11.4266 7.20007 11.3453 7.19922 11.2822Z" fill="#FCA800"/>
<path d="M10.8046 9.818C10.7623 9.87559 10.775 9.97975 10.6742 9.97933C10.6624 9.97933 10.6386 9.94715 10.6408 9.93402C10.656 9.84849 10.714 9.81207 10.8042 9.818H10.8046Z" fill="#FCA800"/>
<path d="M10.5016 10.1396C10.4296 10.2163 10.433 10.3086 10.3416 10.3213C10.3306 10.3226 10.3035 10.2929 10.3047 10.2794C10.3128 10.1905 10.3691 10.1515 10.5016 10.1396Z" fill="#FCA800"/>
<path d="M12.532 8.10645C12.4613 8.18436 12.4638 8.27539 12.3732 8.28937C12.3626 8.29106 12.3351 8.26142 12.336 8.24787C12.3423 8.1581 12.3999 8.11999 12.532 8.10645Z" fill="#FCA800"/>
<path d="M9.27328 8.32461C9.18944 8.26576 9.10051 8.21156 9.05859 8.10994C9.21738 8.09427 9.25422 8.20055 9.27328 8.32461Z" fill="#FCA800"/>
<path d="M7.41016 11.2397C7.41185 11.1834 7.45123 11.1266 7.41016 11.0703C7.48256 11.0788 7.55582 11.1059 7.54777 11.1859C7.541 11.2511 7.46309 11.2363 7.41016 11.2397Z" fill="#FCA800"/>
<path d="M8.76562 9.46206C8.82194 9.37738 8.87868 9.29269 8.935 9.20801C8.94262 9.33546 8.91722 9.44047 8.76562 9.46206Z" fill="#FCA800"/>
<path d="M8.30096 8.06543C8.31578 8.10693 8.3306 8.14842 8.34542 8.19034C8.37252 8.35505 8.26073 8.37495 8.13201 8.38766C8.17096 8.43889 8.23744 8.46091 8.25396 8.52358C8.27979 8.62351 8.34711 8.73233 8.26031 8.82336C8.17858 8.90932 8.11126 8.78737 8.03631 8.78017C7.85211 8.76239 7.6857 8.62181 7.47102 8.69761C7.57222 8.80939 7.64421 8.92244 7.51294 9.04524C7.40285 9.14813 7.26481 9.13585 7.11999 9.00544C7.0442 8.93726 6.92902 8.90551 6.90658 8.78525L6.90234 8.78652C6.91166 8.72809 6.88541 8.66119 6.94469 8.61546C6.95781 8.66585 6.92902 8.77043 7.03869 8.70777C7.19155 8.62054 7.36855 8.57566 7.4977 8.44736C7.76658 8.35421 8.03462 8.26063 8.25438 8.06924C8.26962 8.06797 8.28487 8.0667 8.30053 8.06543H8.30096Z" fill="#FCA800"/>
<path d="M6.90383 8.78492C7.0008 8.88019 7.1308 8.92804 7.22692 9.03305C7.3188 9.13382 7.44753 9.06057 7.51358 8.97461C7.57329 8.8967 7.55381 8.80016 7.42805 8.76925C7.39926 8.76206 7.35141 8.75105 7.3603 8.70574C7.36834 8.6617 7.40815 8.63122 7.44922 8.62614C7.52502 8.6164 7.62537 8.58676 7.67534 8.62232C7.82185 8.72691 8.03187 8.62825 8.15933 8.79805C8.20929 8.86495 8.26349 8.79 8.25121 8.7286C8.22284 8.58337 8.21988 8.40722 7.98699 8.43898C8.03865 8.23828 8.33082 8.42331 8.3431 8.19043C8.55778 8.35726 8.74113 8.55754 8.93422 8.74724C8.97402 8.92761 8.86985 9.00171 8.71784 9.04067C8.60986 9.01865 8.53788 8.94582 8.46971 8.86707C8.39052 8.83023 8.39772 8.89967 8.38121 8.93905C8.32489 9.07581 8.26603 9.20877 8.16737 9.32437C7.97598 9.54836 7.74817 9.66861 7.45981 9.55174C7.15663 9.42895 6.94702 9.21258 6.90383 8.86961C6.90045 8.84208 6.90383 8.81329 6.90426 8.78492H6.90383Z" fill="#FCA800"/>
<path d="M8.47266 8.86719C8.55523 8.9252 8.63822 8.98278 8.72079 9.04079C8.80887 9.16486 8.83851 9.28299 8.68522 9.38207C8.73307 9.16147 8.58063 9.02343 8.47266 8.86719Z" fill="#D66900"/>
<path d="M7.70848 9.26603C7.69958 9.17246 7.7305 9.12207 7.83551 9.12207C7.94137 9.12207 7.96296 9.175 7.96339 9.26603C7.96339 9.38121 7.89394 9.44303 7.79909 9.44303C7.68942 9.44303 7.71525 9.33802 7.7089 9.26646L7.70848 9.26603Z" fill="#FCA800"/>
<path d="M8.34872 8.60718C8.28775 8.61057 8.26107 8.59024 8.27886 8.53393C8.29961 8.4683 8.31146 8.39589 8.4097 8.40394C8.47787 8.40944 8.54986 8.42595 8.54181 8.50259C8.52953 8.61904 8.39954 8.55298 8.34872 8.6076V8.60718Z" fill="#FCA800"/>
<path d="M7.24261 9.25298C7.24812 9.19667 7.23626 9.12638 7.3201 9.13442C7.39844 9.14204 7.41241 9.20683 7.41072 9.27246C7.40945 9.33682 7.40098 9.41092 7.31629 9.39949C7.23838 9.3889 7.24515 9.31099 7.24219 9.25298H7.24261Z" fill="#FCA800"/>
</g>
<defs>
<clipPath id="clip0_27_1053">
<rect width="16" height="16" fill="white" transform="translate(0.5)"/>
</clipPath>
</defs>
</svg>
