<svg xmlns="http://www.w3.org/2000/svg" width="19" height="19" fill="none" viewBox="0 0 19 19"><g fill="#fff" clip-path="url(#a)"><path d="M19.004 9.496a8 8 0 0 0-.11.255c-.092.213-.175.414-.297.585a48 48 0 0 1-1.542 2.095.6.6 0 0 1-.497.251.75.75 0 0 1-.342-.087c-.277-.145-.425-.457-.35-.738.039-.144.141-.289.24-.43.315-.437.646-.882.96-1.307l.286-.385a.38.38 0 0 0 .019-.471c-1.162-1.806-2.457-3.14-3.958-4.084-1.234-.775-2.544-1.167-3.896-1.167q-.376 0-.76.042-.056.005-.106.004c-.311 0-.55-.149-.665-.407-.129-.293-.06-.609.171-.787a1 1 0 0 1 .437-.179 9 9 0 0 1 .95-.053c1.526 0 3.034.437 4.473 1.304 1.379.825 2.602 1.962 3.741 3.475.304.403.581.81.824 1.206.118.194.209.399.308.616.038.095.076.178.114.262m-.311 8.242L5.565 4.593Q3.413 2.443 1.262.285a2 2 0 0 0-.163-.148A.7.7 0 0 0 .689 0a.7.7 0 0 0-.43.148.66.66 0 0 0-.258.483.76.76 0 0 0 .24.582 863 863 0 0 0 3.227 3.232 1 1 0 0 0 .08.057c.023.011.042.027.068.042l.194.133-.17.163q-.21.201-.407.384c-.277.259-.54.502-.782.757A15.3 15.3 0 0 0 .13 9.072c-.172.304-.172.57 0 .844l.185.3c.186.301.38.617.585.906 1.136 1.62 2.385 2.855 3.82 3.771a9.6 9.6 0 0 0 2.27 1.077c.801.25 1.633.384 2.468.387H9.5c1.477 0 2.91-.391 4.257-1.16a.5.5 0 0 1 .236-.071.4.4 0 0 1 .296.144c.946.954 1.91 1.92 2.845 2.852l.516.513.038.038c.065.065.125.13.194.179a.67.67 0 0 0 .417.144.675.675 0 0 0 .646-.464c.087-.285.015-.532-.25-.794m-11.078-8.7.11-.259.198.198.95.95L10 11.062l.175.175-.213.125a.9.9 0 0 1-.467.107c-.436 0-.957-.202-1.29-.498-.567-.506-.829-1.373-.59-1.932m5.192 5.133q-.207.081-.395.164a7.3 7.3 0 0 1-2.97.643c-1.378 0-2.738-.43-4.037-1.278-1.44-.94-2.677-2.244-3.786-3.985-.065-.103-.091-.293-.012-.418.863-1.37 1.842-2.487 2.99-3.411a.2.2 0 0 1 .098-.046q.006 0 .011-.003l.103-.03.08.071.034.03.095.084.437.438c.334.334.68.684 1.025 1.022.148.145.17.297.08.48-.524 1.019-.524 2.163 0 3.14.52.977 1.47 1.612 2.601 1.742q.194.022.388.022a3.05 3.05 0 0 0 1.477-.376.5.5 0 0 1 .235-.068c.156 0 .262.106.297.144.303.312.615.62.941.947q.188.183.38.376l.205.206z"/></g><defs><clipPath id="a"><path fill="#fff" d="M0 0h19v19H0z"/></clipPath></defs></svg>