<svg xmlns="http://www.w3.org/2000/svg" width="17" height="16" fill="none" viewBox="0 0 17 16"><g clip-path="url(#a)"><path fill="#FFD500" d="M5.59 4.669q.725-.715 1.448-1.431l1.039-1.04q.976-.972 1.953-1.94c.068.092.114.207.272.171.061-.014.11.052.14.112.02.037.016.101.045.116.212.106.304.34.5.463.01.008.03.007.038.016.13.164.234.352.485.368.059.003.043.108.008.166-.055.09-.116.176-.194.248a.4.4 0 0 1-.049.036c-.17.031-.343.057-.5.139-.175.034-.298-.062-.418-.167a.35.35 0 0 0-.246-.173c-.143-.128-.245-.073-.37.05-.736.72-1.429 1.481-2.158 2.207C6.318 5.27 5.06 6.535 3.795 7.793c-.239.237-.492.462-.748.682-.247.064-.373-.184-.591-.21.07.09.032.298.274.203.082-.032.143.108.078.202-.08.117-.211.18-.324.262-.042.03-.103.012-.128-.038-.042-.082-.157-.102-.182-.154-.095-.193-.222-.214-.398-.138-.016.007-.037-.015-.05-.033.338-.344.673-.69 1.013-1.031q1.318-1.322 2.634-2.645c.073-.073.17-.126.217-.224"/><path fill="#FCA800" d="M16.233 6.463q-.543.556-1.089 1.108l-2.28 2.28q-1.239 1.234-2.471 2.472c-.648.65-1.291 1.306-1.94 1.956-.254.254-.52.496-.78.744-.105-.055-.16-.154-.209-.253-.043-.089-.05-.209.037-.248.21-.093.285-.312.459-.441-.089.007-.116.077-.152.132a.35.35 0 0 1-.114.12c-.085.05-.177.063-.255-.002-.122-.1-.027-.202.01-.303.114-.257.343-.417.533-.607.143-.143.294-.276.425-.43.338-.295.647-.621.966-.937.28-.276.555-.556.834-.833l.85-.848q.43-.432.863-.863.368-.36.73-.73c.348-.356.717-.692 1.046-1.067.258-.197.444-.473.718-.654.125-.042.19-.144.246-.255a.5.5 0 0 1 .196-.182c.039-.016.072-.042.109-.062.146-.083.214-.058.271.095.033.085.01.222.143.226.115.004.215-.067.27-.172.042-.082.104-.1.186-.104.075-.003.125-.033.075-.12-.03-.053-.087-.109-.015-.165.059-.046.12-.011.177.017.062.031.133.05.16.126"/><path fill="#FE9F00" d="M5.466 15.384c-.277.065-.525.19-.709.408-.119.142-.205.136-.314 0a1.5 1.5 0 0 0-.209-.208c-.112-.096-.18-.182-.07-.335.072-.099.03-.206-.06-.301-.101-.108-.219-.08-.303-.025-.135.09-.206.033-.287-.061a2 2 0 0 0-.176-.181c-.092-.081-.153-.151-.04-.27.087-.09.061-.203-.026-.281-.083-.073-.197-.143-.299-.07-.145.102-.23.036-.32-.066a3 3 0 0 0-.132-.136c-.1-.096-.206-.176-.073-.338.072-.087.018-.207-.064-.284-.083-.079-.193-.121-.287-.043-.13.11-.205.044-.29-.053-.055-.063-.121-.116-.183-.173-.09-.082-.144-.156-.047-.284.072-.095.046-.214-.048-.305-.1-.097-.217-.118-.323-.035-.109.086-.166.047-.242-.038a4 4 0 0 0-.313-.313c-.094-.083-.095-.147.016-.208.36-.245.772-.381 1.16-.567.13-.061.237-.182.399-.168.067.158.192.27.31.388l2.47 2.469c.149.148.276.336.527.314q.055.16.113.318c.012.033.017.084.044.093.233.078.283.354.496.449.098.043.104.092.042.175-.133.179-.219.202-.424.098-.12-.06-.23-.023-.34.03z"/><path fill="#FFCD00" d="M11.814.49c.213-.135.425-.271.591-.467q.236.226.476.448c.066.061.06.108.008.178-.083.113-.093.234.017.343.112.112.236.122.358.023.065-.053.108-.046.16.009.107.112.213.225.325.331.061.058.046.102.002.16-.108.14-.052.27.05.379.104.11.218.047.314-.019.083-.056.14-.043.186.036.025.044.068.07.096.106.1.132.363.204.16.458-.044.056-.004.206.076.266.079.058.182.113.292.042.115-.074.204-.085.296.057a.8.8 0 0 0 .198.18c.108.078.124.157.03.255-.113.118-.066.225.03.325.092.098.223.09.307.03.148-.104.212-.021.311.065.118.1.181.244.316.332.107.069-.01.107-.054.15-.296.178-.612.312-.924.457-.058.026-.116.053-.181.02a.06.06 0 0 1-.022-.054c.01-.1.154-.198.096-.261-.116-.128-.216-.273-.346-.388a9 9 0 0 1-.588-.585c-.132-.141-.274-.274-.41-.41-.205-.206-.403-.422-.617-.612-.172-.152-.305-.339-.49-.478-.159-.119-.278-.287-.428-.422-.095-.086-.163-.204-.282-.273-.075-.044-.11-.125-.138-.206-.016-.046-.024-.116-.072-.123-.252-.039-.157-.21-.143-.353"/><path fill="#FFCF00" d="M2.245 11.069c-.336.16-.67.323-1.008.478-.187.086-.38.16-.57.238.101-.142.209-.281.303-.429.212-.334.155-.668-.036-.986q-.15-.253-.371-.452C.5 9.862.467 9.804.548 9.726q.591-.577 1.178-1.157c.05.004.1.011.142-.024.143-.119.261-.178.27.096 0 .047.037.09.104.068.034-.012.065.005.097.026.061.042.006.205.115.161.12-.048.22-.157.32-.248a.09.09 0 0 0-.003-.134c-.048-.043-.091-.011-.124.03-.026.033-.049.076-.1.046-.11-.066-.043-.247-.194-.302-.023-.009.093-.082.132-.138.01-.014.034-.02.076-.042-.032.17.104.148.18.205.099.073.17.159.304.133.038.096-.045.137-.092.188-.113.122-.235.236-.35.356-.084.084-.163.176-.254.251-.134.111-.147.2-.027.346.183.222.323.469.321.78-.001.232-.123.396-.232.574-.045.056-.088.117-.167.128"/><path fill="#FDA600" d="M15.243 4.638c.337-.086.622-.287.94-.42.06-.024.112-.05.177-.041q-.12.157-.237.319c-.346.487-.223.876.104 1.296.017.022.041.038.06.059q.292.321-.056.614l-.156-.06c-.055-.02-.11-.114-.163-.05-.064.075.056.088.083.136.064.117-.013.164-.1.172-.102.01-.171 0-.23.128a.34.34 0 0 1-.317.166c-.139-.02-.132-.155-.153-.266-.024-.125-.081-.206-.21-.082-.036.036-.076.062-.13.059-.053-.18-.179-.316-.283-.466-.264-.38-.25-.813.032-1.151.088-.07.112-.191.206-.257.155-.02.278-.134.432-.156"/><path fill="#FEA300" d="M5.465 15.384c.119-.128.239-.202.392-.04.077.081.168.056.239-.02.047-.05.081-.113.207-.17-.233-.025-.36-.103-.379-.293-.002-.021-.03-.053-.051-.057-.335-.073-.32-.357-.367-.604.141-.27.575-.419.895-.307.211.074.377.215.543.355.055.012.022.186.142.076.123-.117.21-.284.41-.293.02.096-.188.2-.01.282.154.07.244-.047.315-.17.03-.053.045-.122.114-.143.056-.016.118-.016.148.043.035.074-.02.107-.08.112-.104.009-.14.065-.155.161-.016.103-.11.137-.193.174-.174.078-.206.172-.095.32.05.068.1.134.133.211-.304.31-.612.615-.909.93-.089.095-.133.027-.187-.018-.113-.095-.218-.199-.332-.292a1.08 1.08 0 0 0-.78-.258"/><path fill="#FFCD00" d="M15.244 4.637c-.127.09-.241.212-.422.168-.105-.022-.16-.11-.228-.178l-2.67-2.668q-.21-.21-.466-.072c-.058.032-.113.093-.191.042l.2-.269c.078-.099.06-.16-.07-.154-.178.008-.23-.083-.329-.228-.105-.154-.277-.306-.432-.434-.091-.076-.216-.087-.223-.245-.004-.078-.06-.169-.15-.131-.248.104-.212-.078-.232-.21.282-.336.285-.334.61-.049.246.218.503.4.866.37.118-.011.19-.126.309-.091.046.128.005.315.223.325.103.35.445.494.641.753.138.181.368.266.448.487.003.007.005.016.01.019.23.107.31.381.542.484.052.022.078.05.092.102.01.033.022.08.047.092.232.105.304.389.542.485.043.017.07.038.084.084.012.04.025.099.053.11.238.102.3.397.544.484.057.02.068.061.088.106.024.05.06.095.087.143.049.09.255.044.198.212-.032.095-.112.175-.17.263z"/><path fill="#DE8400" d="m2.578 8.951.466-.506c.641-.633 1.286-1.263 1.923-1.9q1.485-1.49 2.966-2.983c.6-.605 1.203-1.206 1.793-1.82.142-.148.25-.183.392-.027.032.024.073.044.04.095-.218-.069-.327.1-.445.22-.275.282-.55.562-.817.852-.06.067-.101.135-.07.228.002.067-.04.111-.08.157C7.347 4.66 5.955 6.06 4.555 7.45c-.034.025-.07.042-.113.034-.128-.068-.197.028-.268.102-.43.442-.888.857-1.326 1.292-.075.074-.15.158-.27.073"/><path fill="#DE8100" d="M8.808 3.112c-.17-.106-.014-.202.035-.248.336-.321.652-.664.969-1 .153-.163.228-.112.36-.067.102-.045.14.05.202.093.13.086.251.194.426.164.15-.066.326-.03.467-.126a.8.8 0 0 0 .308-.175c.09-.074.141-.08.226.006q1.49 1.499 2.986 2.993c.015.015.024.035.036.052-.057.084-.068.201-.171.255-.138-.007-.244.148-.394.08-.017-.035-.021-.075 0-.102.132-.172.043-.284-.085-.41q-1.151-1.139-2.29-2.29c-.135-.137-.243-.191-.434-.083-.432.247-.872.21-1.278-.065-.176-.119-.28-.08-.41.06-.24.257-.494.502-.746.749-.056.055-.102.141-.207.113"/><path fill="#FFCD00" d="M11.264 1.93c-.122.167-.301.12-.467.125.132-.13.3-.128.467-.126m-.89-.039-.203-.093-.05-.081c.122.002.218.044.253.174"/><path fill="#D36900" d="M13.72 7.727c-.046.137-.168.218-.263.313-.525.531-1.066 1.048-1.595 1.576-.38.379-.748.772-1.128 1.152-.404.405-.82.8-1.225 1.205q-.436.437-.863.885a.8.8 0 0 1-.218.162c-.057-.037-.079-.088-.173-.001-.293.27-.527.603-.868.822-.068.043-.13.116-.227.076-.035-.114.06-.162.12-.223.414-.42.833-.833 1.248-1.253 1.448-1.44 2.89-2.89 4.337-4.332.075-.074.13-.191.268-.174.047.023.02.157.111.096.113-.076-.035-.115-.046-.176.153-.279.359-.505.652-.641.07.115-.016.177-.083.246-.076.077-.184.128-.206.251.053.03.11-.025.159.016"/><path fill="#D36400" d="M7.16 13.907c.316-.127.543-.368.747-.625.12-.15.29-.236.403-.407.082-.125.07.095.118.144-.211.3-.52.505-.761.776-.066.074-.133.143-.172.236-.144.094-.28.196-.381.339-.086.034-.127-.024-.169-.081-.124-.089-.243-.187-.375-.264a.75.75 0 0 0-.862.031l-.203.144c-.118.089-.206.08-.32-.036-.95-.96-1.907-1.913-2.862-2.87-.062-.061-.156-.114-.08-.226l.13-.125c.067-.06.152-.088.233-.122q.143-.057.139.1c-.081.162-.033.276.096.403q1.18 1.163 2.345 2.342c.121.123.212.158.377.06.44-.263.885-.229 1.31.051.09.06.185.1.285.13z"/><path fill="#D36800" d="m13.72 7.727-.218.078a.31.31 0 0 1 .13-.298c.09-.074.232-.125.214-.287-.03-.087.04-.126.085-.176.065-.074.138-.14.207-.21q.29-.29.082-.643a1.06 1.06 0 0 1-.04-1.007c.021-.027.046-.048.085-.041q.152-.062.303-.127c.05-.022.078-.014.081.044-.297.399-.282.783.023 1.195.087.118.27.21.184.412a.5.5 0 0 0-.166.165c-.101.07-.138.205-.258.258-.26.187-.428.476-.711.638"/><path fill="#FEA300" d="M7.907 14.663a.15.15 0 0 1-.12.124c-.065.013-.112-.024-.115-.088-.004-.078.045-.135.12-.141.06-.005.092.05.115.104"/><path fill="#FDA600" d="M14.434 7.09c.081-.09.116-.228.258-.258-.052.12-.106.238-.258.257"/><path fill="#DF8200" d="M2.712 10.942c.01-.104-.037-.125-.113-.065a.3.3 0 0 1-.226.065c.041-.176.2-.295.217-.49.034-.369-.139-.648-.366-.901-.099-.11-.105-.175.006-.27.122-.103.233-.22.35-.33.22.016.301-.182.426-.298.418-.392.82-.802 1.232-1.201.066-.064.149-.132.21.013-.006.078-.067.12-.114.171a37 37 0 0 1-1.562 1.6c-.132.13-.165.227-.054.395.196.295.296.622.193.983-.083.099-.017.288-.199.328"/><path fill="#FE9F00" d="m6.945 14.29.17.08c-.021.044-.048.09-.103.07-.07-.024-.067-.09-.067-.15"/><path fill="#FFD500" d="M4.53 7.424q.345-.356.692-.708Q6.714 5.222 8.208 3.73c.167-.167.34-.33.509-.494.245-.14.288-.13.459.103a.23.23 0 0 0 .092.083c.02.008.047.009.059.023.159.18.351.328.505.512.025.03.025.094.062.106.274.09.374.32.474.557.029.07.105.134.053.21-.06.085-.14.02-.207-.01-.105-.05-.201-.076-.266.057-.226.27-.488.505-.736.753-.072.063-.021.118.02.161.199.21.392.429.633.596a.2.2 0 0 1 .063.06.38.38 0 0 0 .25.245q.065.044.102.114c.048.236-.014.354-.232.373a.54.54 0 0 0-.443.274.35.35 0 0 1-.171.033c-.365-.008-.431-.053-.472-.312.002-.111 0-.224.035-.332a.44.44 0 0 0-.06-.418.2.2 0 0 1-.02-.057c.03-.098.021-.186-.07-.25a.4.4 0 0 0-.338.422c.016.239.052.476.078.713.007.056.02.112.017.168-.003.07.007.153-.068.187-.082.038-.125-.035-.17-.088-.106-.151-.267-.25-.38-.392-.09-.112-.168-.063-.244.018-.072.077-.165.142-.053.262.124.132.28.237.359.408q.02.048.048.091c.101.159.09.205-.089.277-.18.074-.357.15-.504.282-.108.044-.234.031-.33.116-.037.033-.102.038-.134-.005-.045-.062.02-.097.055-.136.12-.134.298-.177.432-.288a.3.3 0 0 1 .051-.03c.098-.03.12-.073.024-.136-.04-.025-.083-.04-.126-.058a.3.3 0 0 1-.107-.092c-.124-.148-.211 0-.311.039l-.071.047a.94.94 0 0 0-.362.258c-.05.05-.094.105-.144.153-.113.109-.135.224-.047.356a.3.3 0 0 1-.02.224c-.049.062-.125.089-.185.137-.09.073-.184.068-.27-.002-.108-.09-.23-.164-.298-.294a.22.22 0 0 0-.138-.122c-.105-.027-.175-.087-.2-.194-.004-.013-.007-.034-.017-.038-.219-.097-.297-.35-.503-.458-.17-.09-.32-.362-.274-.519z"/><path fill="#FFD400" d="M9.91 4.89c.004-.219.15-.182.282-.147.064.017.119.068.192.112.033-.106-.018-.165-.07-.214a.35.35 0 0 1-.11-.259c-.006-.12-.142-.167-.235-.201-.115-.042-.186-.089-.187-.215q-.004-.126-.131-.134c-.04-.003-.11-.008-.117-.029-.067-.205-.32-.277-.38-.41-.12-.26-.262-.19-.435-.156l.088-.125c.337-.33.677-.656 1.008-.991.103-.104.166-.118.297-.024.45.323.928.375 1.41.06.117-.077.196-.057.292.04q1.25 1.26 2.51 2.511c.082.082.119.145.033.247-.043.05-.062.124-.09.187l-.041.043c-.414.301-.892.48-1.342.711-.276.141-.553.282-.834.412-.096.044-.187.1-.299.091-.042-.01-.074-.037-.108-.062q-.244-.178-.464.042l-.134.134c-.183.177-.225.178-.398.009-.2-.194-.2-.225-.005-.424q.125-.128.254-.255c.088-.087.057-.157-.018-.233-.078-.08-.148-.096-.232-.01-.098.1-.195.204-.3.297-.144.125-.22.103-.409-.085-.115-.115-.113-.214.002-.324q.137-.131.269-.269c.064-.065.148-.128.067-.232-.065-.084-.137-.168-.265-.111-.032.014-.064.03-.1.013zM4.531 7.425c.013.089.057.16.099.236.09.167.218.23.365.302.025.011.044.06.043.091-.006.14.066.19.194.185.013 0 .036.003.039.011.077.219.306.296.428.457.103.136.23.228.347.34.048.044.09.018.129-.02a.37.37 0 0 1 .22-.115c.027.024.034.054.032.088a.13.13 0 0 1-.025.058c-.193.121-.377.262-.62.267-.11-.06-.182.006-.256.076-.057.052-.117.1-.17.157-.26.196-.564.31-.851.455-.482.243-.966.48-1.458.701-.108.05-.224.096-.167-.11.071-.405-.045-.762-.292-1.079-.076-.097-.022-.15.04-.213.32-.318.635-.64.956-.955.295-.29.542-.626.864-.891z"/><path fill="#FDA700" d="M2.88 10.604c.008.07-.01.148.116.084q.96-.483 1.929-.948c.144-.07.29-.132.415-.233.192.174.369.365.552.548.047.047.113.093.082.178-.048.03-.097.014-.146.002-.067-.02-.14-.045-.199.009-.128.117-.296.182-.404.324a.1.1 0 0 1-.056.02c-.126-.036-.13-.112-.067-.208.031-.047.074-.085.114-.125.09-.09.139-.175.014-.282-.108-.094-.19-.145-.31-.005-.234.273-.506.51-.761.762-.11.11-.088.178.012.276.096.094.16.134.276.022.24-.233.308-.227.541.028.28.305.6.574.867.892.105.125.191.112.294 0 .06-.065.116-.147.226-.132.133.126.113.294.116.452.002.138.022.254.184.283.014.002.035.006.038.015.08.241.365.297.465.521.078.174.32.22.454.087.153-.153.344-.27.448-.47a.4.4 0 0 1 .115-.108c.127-.024.207-.186.364-.127q-.61.617-1.216 1.235c-.064.065-.122.136-.183.204-.073.045-.133.041-.21-.014-.54-.384-.955-.396-1.491-.041-.083.055-.123.032-.178-.023-.867-.868-1.733-1.738-2.605-2.601-.127-.126 0-.194.037-.286.12-.082.053-.255.167-.34z"/><path fill="#FCA800" d="m8.56 12.47-.343.167c-.076-.287-.008-.45.237-.557.047-.02.099-.034.113-.086.039-.133.08-.24.262-.176.048.017.056-.071.056-.116 0-.168.078-.267.244-.291.063-.01.102-.025.103-.101.003-.158.107-.223.247-.237.07-.007.094-.029.093-.102 0-.158.105-.223.245-.236.063-.006.1-.002.095-.088-.009-.182.115-.247.271-.254.18-.008.363.008.394-.242.005-.04.052-.07.092-.08.222-.049.255-.218.252-.4q-.006-.259.24-.29c.082-.01.111-.043.104-.12-.002-.021.005-.042.01-.063.052-.167.3-.11.316-.194.03-.161.07-.268.233-.3.066-.012.118-.013.119-.107.001-.17.123-.233.269-.235.193-.002.375-.004.397-.26 0-.01.007-.018.01-.02.23-.075.286-.348.501-.441.02-.008.05-.01.057-.025.13-.26.398-.411.525-.671.02-.043-.03-.09-.014-.143.025-.075.086-.09.15-.093.097-.005.136-.053.132-.15-.004-.071.006-.145.09-.173.094-.03.153.026.215.11-.034-.109-.09-.2-.006-.29.047.067.088.141.145.2.092.094.065.163-.018.246-.187.186-.367.378-.55.568a5 5 0 0 0-.632.635.11.11 0 0 1-.087.086q-.723.708-1.442 1.42l-3 2.998c-.04.04-.085.073-.127.11z"/><path fill="#D36800" d="M13.128 7.941a.14.14 0 0 1 .087-.086c.053.054.238.02.125.185-.039.057-.107.089-.164.076-.1-.022-.029-.116-.049-.174"/><path fill="#FCA800" d="M14.27 6.205c.004.083-.012.168.05.242.055.068.042.143-.046.166-.101.025-.062-.05-.061-.105.001-.07-.054-.092-.117-.09-.065.002-.084.049-.078.102.018.161 0 .282-.213.237-.046-.01-.1.035-.078.071.073.12-.052.176-.066.263-.023.145-.096.224-.237.25-.035.006-.08.021-.077.06.021.212-.142.235-.274.33-.147.105-.21.323-.423.373-.008.002-.019.025-.017.036.066.315-.183.263-.34.267-.272.006-.335.062-.288.336-.323-.008-.382.051-.344.344-.318-.018-.385.05-.329.33-.337.003-.378.033-.379.456 0 .14-.047.169-.147.2-.109.035-.203.045-.2.226.004.139-.2.147-.327.147-.3 0-.352.046-.309.331-.321-.013-.388.053-.327.347-.104-.009-.208-.026-.3.04-.114.081-.056.187-.043.286-.292-.003-.294.006-.352.306-.01.05-.02.236-.184.093-.069-.06-.127.014-.124.103.004.108-.033.173-.154.178-.159.007-.242.086-.231.259.005.08-.025.165-.039.247a.15.15 0 0 0-.085.085c-.074.039-.145.087-.225.114-.188.064-.3.02-.396-.153-.01-.018-.015-.048-.032-.054-.235-.082-.29-.368-.518-.458a.16.16 0 0 1-.1-.103.33.33 0 0 0-.268-.24c-.173-.037-.138-.206-.205-.31a.42.42 0 0 0-.207-.218.6.6 0 0 0-.135-.134.43.43 0 0 0-.205-.206.6.6 0 0 0-.134-.133.5.5 0 0 0-.21-.212c-.053.037.035-.151-.07-.043-.065.066-.147.075-.215-.009.012-.203.24-.18.325-.31.078-.117.19-.119.31-.07-.03.189.008.228.296.301a.14.14 0 0 1 .048.031c-.058.187-.014.234.291.308a.1.1 0 0 1 .048.032c.02.06-.053.095-.04.17.084.001.165-.066.253-.032.073.023.12.075.158.138.052.148.205.07.296.131.046.014.075.177.139.015a.14.14 0 0 1 .057-.062c.177-.063.011-.097-.012-.142-.06-.075-.056-.15 0-.224.022-.027.05-.047.076-.07.043-.038.086-.087.052-.142-.051-.084-.09.005-.131.024-.073.034-.145.043-.218.004a.14.14 0 0 1-.035-.045c-.025-.16-.16-.218-.273-.298-.048-.091-.061-.227-.223-.17a.1.1 0 0 1-.057-.063c-.004-.225-.159-.336-.329-.437a.3.3 0 0 1-.033-.076c-.015-.06-.117-.106-.045-.18.064-.067.146-.11.24-.041.109.171.259.308.394.457.11.071.176.193.298.249.098.07.209.064.321.051.14.13.352.095.501.226.1.088.08-.056.105-.106.046-.082.119-.123.207-.1.106.027.169-.031.237-.09.095-.01.184-.013.262-.098.107-.116.143-.212.008-.324a.2.2 0 0 1 .006-.152c.088-.072.136-.173.187-.271.095-.038.162.008.221.075.021.026.025.096.035.086.093-.093.214-.057.324-.063-.004-.09-.08-.08-.118-.114-.061-.077-.169-.12-.184-.233.01-.058.045-.091.098-.11.116-.028.203.033.29.093.052.036.1.083.172.067q.058-.015.06-.076c0-.035-.03-.044-.059-.047-.049-.004-.099.002-.147-.012-.059-.016-.13-.06-.107-.11.104-.227-.076-.273-.208-.352a.2.2 0 0 1-.062-.061c-.038-.1-.087-.188-.207-.204a.18.18 0 0 1-.098-.12.16.16 0 0 1 .03-.13.15.15 0 0 1 .129-.018c.145.126.31.104.478.064.108.004.212.029.315.059.12.093.338.038.39.263-.011-.252.32-.11.348-.32-.094-.045-.147.102-.235.035-.058-.044-.066-.103-.054-.169.01-.056.06-.092.083-.165-.306-.052-.612-.083-.916-.119a.2.2 0 0 1-.057-.025.05.05 0 0 1-.016-.036q0-.02.005-.02l.173-.006A.5.5 0 0 1 9.8 7.3c.221-.094.43-.212.648-.315a.16.16 0 0 1 .114.038c.261.247.258.243.512-.001.17-.165.32-.349.489-.514.066-.034.104-.103.168-.14.347-.094.645-.294.965-.445.512-.24 1.02-.493 1.529-.74-.147.347-.12.686.043 1.02z"/><path fill="#DD8300" d="M11.73 6.37c-.004.087-.058.135-.13.17-.383.106-.696.357-1.058.51l-.082-.045c-.115-.025-.156-.126-.214-.21l-.084-.084a.6.6 0 0 1-.254-.255l-.042-.042a6 6 0 0 1-.647-.621c-.047-.052-.097-.11-.031-.183q.339-.381.72-.72c.174-.13.379-.062.467.144.034.078-.02.102-.055.139-.117.121-.234.244-.36.358-.094.085-.096.146-.002.238.224.22.22.224.44.002.06-.06.129-.113.178-.18.124-.168.224-.154.361-.002.102.115.128.185 0 .287-.093.075-.162.18-.258.249-.182.13-.148.224-.002.37.14.137.224.131.332-.013.038-.05.089-.09.134-.135q.295-.296.587.024"/><path fill="#DC8400" d="m9.44 7.435.004.037c-.217.09-.457.112-.648.285-.085.076-.245.012-.36-.039-.111-.05-.123-.14-.051-.24.058.017.062.137.14.094.063-.035.032-.118.026-.177q-.041-.417-.098-.832c-.023-.169.18-.512.34-.557.104-.029.094.051.102.112.066.077.03.169.04.254.081.159.079.33.072.502-.003.088-.024.176.013.262.004.264.033.284.421.298z"/><path fill="#DD8400" d="M8.385 7.479c.018.072-.046.185.087.202.159.02.349.134.458-.064.077-.14.129-.21.293-.119.053.03.147-.015.222-.026v.002c.051.111-.049.123-.108.154-.144.077-.3.134-.429.241a.4.4 0 0 1-.116.042c-.167.041-.3.168-.473.194a.2.2 0 0 1-.06-.006c-.103-.078-.168-.19-.255-.283-.124-.132-.242-.27-.374-.393-.097-.09-.095-.157.005-.235a.4.4 0 0 0 .089-.088q.154-.218.306 0c.1.144.268.224.355.38z"/><path fill="#DF8300" d="m6.402 8.998-.007-.086.005-.253c-.03-.187.062-.324.183-.45.154-.082.324-.145.403-.321l.042-.037c.13.005.246-.118.384-.04l.086.084c.15.139.011.198-.08.258-.077.052-.186.057-.213.17-.052.12-.205.166-.22.31-.03.054-.036.118-.077.166-.155.1-.295.24-.506.199"/><path fill="#FFD400" d="M10.248 6.794c.091.05.158.124.214.21-.274.16-.548.32-.849.424.012-.232.188-.27.364-.292.26-.033.3-.074.271-.342M6.942 8.616c.043-.12.149-.193.214-.296.117-.116.246-.2.422-.17-.127.19-.394.201-.547.443.175-.074.3-.19.463-.146l.006.032c-.11.159-.29.206-.453.272-.124.05-.14-.035-.105-.135"/><path fill="#FFD400" d="M8.003 7.816c.11.058.174.162.25.254.016.05-.015.082-.048.105a2.4 2.4 0 0 1-.634.302c-.027.008-.053-.01-.074-.029v-.001c.1-.183.293-.224.464-.296.125-.052.263-.094.067-.237-.021-.015-.017-.064-.025-.097M9.191 5.61c-.014.098.051.153.11.214.188.198.402.37.568.59-.04-.008-.1-.002-.119-.026-.183-.24-.455-.393-.623-.647-.07-.105-.02-.118.064-.13m-.172 1.525a3 3 0 0 1-.085-.764c.137.11.193.242.13.417a.8.8 0 0 0-.045.347"/><path fill="#DE8600" d="M6.987 7.888c-.001.254-.212.276-.38.346q-.035-.045.003-.084a.6.6 0 0 1 .377-.262m.591.26-.422.171c.01-.112.072-.155.18-.185.101-.028.245-.069.159-.24l.12.046c.068.083.105.162-.037.209"/><path fill="#FFD400" d="m6.61 8.15-.004.083c-.13.112-.132.286-.205.426-.118-.062-.111-.158-.046-.243.075-.096.14-.206.254-.267"/><path fill="#DE8600" d="M7.41 7.81c-.131-.025-.242.152-.383.04.123-.061.229-.28.384-.04"/><path fill="#FFD400" d="M9.91 6.457q.158.098.255.255-.243-.012-.255-.255m-.976-.084c-.07-.077-.033-.17-.04-.255.14.065.132.153.04.255M7.578 8.15c.1-.055.046-.136.037-.21.069.033.142.074.12.16-.02.08-.101.04-.156.05"/><path fill="#DD8400" d="M11.761 3.737c-.048.12-.116.157-.163.205q-.222.23.007.459c.314.313.623.632.944.938.116.11.124.187-.003.283a.7.7 0 0 0-.12.118c-.072.088-.13.075-.205-.002-.353-.359-.714-.708-1.063-1.07-.107-.11-.172-.122-.285-.005-.241.253-.35.23-.531-.078-.036-.06-.012-.088.024-.124q.471-.47.94-.943c.062-.063.11-.067.177-.005.088.08.186.15.28.224z"/><path fill="#D36700" d="m6.398 8.998.502-.212.023.02c.052.138.079.283.173.405.353.46.86.425 1.142-.083.038-.068.063-.142.1-.21.034-.058.065-.14.158-.067.164.144.276.309.218.542-.203.512-.589.751-1.13.759-.056.002-.106-.02-.158-.035-.161-.008-.301-.078-.44-.152-.043-.044-.11-.051-.152-.099-.166-.191-.328-.385-.432-.62-.019-.069-.06-.136-.012-.209zm.758 1.611.003.039c.04.034.099.045.128.094.09.17-.045.254-.139.347-.077.077-.164.158-.285.064a.3.3 0 0 0-.126-.125c-.04-.038-.093-.059-.125-.106-.061-.096-.154-.161-.233-.24-.036-.031-.074-.06-.105-.097-.062-.098-.157-.165-.238-.245-.03-.033-.083-.055-.067-.115-.145-.2-.342-.351-.506-.532-.05-.056-.126-.096-.123-.187.08-.076.164-.15.241-.23.07-.07.128-.078.18.017.16.039.253.167.364.272.154.184.366.316.481.535q.023.019.044.039c.117-.015.145.076.183.155.108.105.232.193.323.315"/><path fill="#FCA800" d="m6.099 9.59-.337-.296c.24-.012.412-.194.631-.256l.049.21c.02.055 0 .097-.045.13-.2-.008-.21.008-.134.172.011.023.005.055.007.082-.068.033-.117-.016-.171-.042"/><path fill="#D46500" d="M6.348 11.83q-.058.045-.112.095c-.257.252-.252.248-.494-.011-.286-.307-.581-.605-.874-.906-.108-.11-.212-.177-.338-.006-.059.078-.135.218-.236.178-.115-.046-.2-.168-.291-.264-.042-.045-.004-.093.032-.129.318-.319.638-.635.954-.956.061-.062.103-.053.155.005a1 1 0 0 0 .094.084c.19.146.192.185.02.36l-.134.136c-.064.068-.026.112.038.149a.6.6 0 0 1 .202.151c.07.126.19.2.294.29q.143.195.337.337c.095.105.165.236.298.306.044.052.12.095.055.18"/><path fill="#FCA800" d="M6.348 11.829c.009-.074-.06-.107-.086-.163.02-.076.07-.13.133-.173.06.006.138.036.11.093-.084.169.054.163.138.202.031.014.085.009.097.03.123.223.393.312.498.547.017.038.012.089.065.095.171.021.232.13.293.283.052.128.212.075.315.032.074-.03.14-.059.219-.054-.114.246-.355.372-.533.557-.117.122-.453-.003-.477-.174-.017-.123-.061-.176-.184-.174-.228.004-.08-.321-.28-.331-.232-.012-.227-.166-.218-.328a1.1 1.1 0 0 0-.047-.373c-.007-.025-.029-.046-.043-.07m-.381-1.603.088.084c.024.073.113.119.085.212-.15.05-.265-.072-.38-.116-.123-.047.069-.136.084-.222zm-.634.51a.5.5 0 0 1-.169-.17l.048-.002q.172.061.288-.095l.008.137c-.014.102-.048.177-.175.13"/><path fill="#D36800" d="M8.299 8.066c.17-.038.31-.148.469-.212.078.048.157.094.207.175l.082.082a.53.53 0 0 1 .214.214l.04.04c.269.144.283.382.001.504l-.083.083c-.183.1-.217-.098-.32-.16-.188-.204-.403-.382-.596-.583-.03-.045-.055-.09-.014-.142z"/><path fill="#D46800" d="M8.895 7.852c.08-.169.27-.168.399-.262.051-.037.146-.018.15-.116.322-.018.632.08.952.09.094.002.174.045.058.149-.03.027-.053.064-.08.096-.149.257-.23.294-.464.213-.117.023-.224-.041-.338-.042-.156-.02-.323.02-.465-.082l-.128-.003q-.055.005-.084-.043"/><path fill="#FDA700" d="M8.935 8.747c.11.052.127.237.295.205.029.094.18.09.172.214q-.058.203-.255.127l-.211-.085c-.04.096-.062.203-.17.254v.17c-.055.172-.238.253-.296.423-.023.12-.094.175-.208.125-.09-.04-.146.019-.215.044-.2.056-.364.012-.465-.125.53.01.878-.258 1.102-.717.082-.113.032-.238.032-.358a.63.63 0 0 0 .22-.277"/><path fill="#D56A00" d="M10.543 7.05c.047-.168.22-.154.334-.217.205-.113.393-.267.633-.311.037-.008.067-.015.091.02-.207.214-.424.42-.618.645-.131.154-.225.137-.333-.01-.032-.044-.071-.085-.107-.127"/><path fill="#FCA800" d="M9.91 8.022c.214.056.327-.105.466-.212.01.088-.008.227.14.088.05-.047.081-.138.156-.036.054.072.056.146-.03.197-.045.026-.067.091-.142.069-.124-.037-.178.005-.134.139.011.035.005.071-.038.084-.038.011-.087-.005-.09-.035-.016-.195-.164-.209-.307-.237-.01-.002-.014-.037-.02-.057m-.597.846q.206-.25-.002-.505c.118.016.197.096.28.169.045.039.078.084.02.14-.031.032-.096.052-.048.114.039.051.1.035.155.042.061.008.144-.067.181.036.028.075-.006.135-.066.183-.08.064-.15.015-.209-.03-.095-.072-.18-.157-.311-.149"/><path fill="#FDA700" d="M6.864 11.152c.246-.013.44-.23.377-.42.128-.056.201-.035.172.126a.174.174 0 0 0 0 .212c.086.056.057.113 0 .17l-.042.041c-.057.057-.114.087-.17 0-.117-.032-.292.089-.338-.13"/><path fill="#FCA800" d="M8.472 10.055c-.03-.23.186-.29.296-.423.067.047.2.053.152.18-.07.182-.293.295-.448.243"/><path fill="#FDA700" d="M6.395 11.495c-.004.089-.063.135-.133.173-.155-.043-.205-.189-.293-.298l.015-.024c.063-.034.109-.119.2-.063q.214-.003.211.212"/><path fill="#FDA700" d="M5.968 11.37a.9.9 0 0 1-.34-.34l.017-.024c.062-.033.108-.119.199-.063q.214-.003.211.212c.06.105-.041.147-.084.211z"/><path fill="#FCA800" d="M7.583 10.098c.14.098.308.091.465.126-.016.067.103.152-.013.201-.085.037-.164.003-.209-.09-.019-.04-.063-.08-.1-.063-.157.07-.215-.075-.313-.133q-.015-.015-.01-.03.006-.015.01-.015z"/><path fill="#FDA700" d="M5.332 10.735c.096.007.118-.085.175-.13q.215-.003.212.212c.058.105-.042.147-.085.211l-.003.003c-.12-.078-.242-.155-.299-.296m.766-1.145a.3.3 0 0 1 .17.042c.265.103.34.207.338.469a4 4 0 0 1-.508-.51"/><path fill="#FCA800" d="m6.309 10.562.088.085c.023.072.113.118.084.211-.152.046-.274-.068-.385-.119-.12-.056.03-.152.09-.219.054-.025.084.021.123.042"/><path fill="#FDA700" d="m6.395 9.377.044-.13.423.595c-.029.027-.058.024-.086 0-.143-.142-.326-.252-.381-.465"/><path fill="#FCA800" d="M9.147 9.292c.105-.001.197-.029.254-.127.08.013.215-.035.187.116-.023.124-.12.115-.212.052-.06-.042-.091.01-.119.046-.04.053-.077.116-.148.054-.067-.06.033-.091.038-.14m-1.734 1.566c-.006-.112-.08-.132-.172-.127a.13.13 0 0 1-.08-.085c.078-.009.168.027.23-.052.04-.05.062-.148.148-.051.062.07.066.155.012.227-.031.041-.091.06-.138.088m-.766.041c.028.044.095.06.09.127-.055.005-.116-.011-.16.033-.052.05-.116.081-.162.016-.047-.068-.01-.133.063-.174.017-.01.03-.029.045-.043.054-.025.085.021.124.042"/><path fill="#FDA700" d="m7.412 10.095-.001.045c-.124.075-.235.045-.339-.042-.039-.053-.116-.086-.084-.173zm-.256.515c-.16-.05-.24-.186-.34-.3q.023-.024.045-.001c.157.042.294.105.295.3"/><path fill="#FCA800" d="M9.105 7.899c.161-.005.316.027.466.082-.166.031-.342.125-.466-.082M6.86 10.31h-.045c-.059-.053-.085-.139-.167-.17.025-.046.054-.093.113-.065.097.047.106.139.1.234zm-1.226.718c-.03-.093.081-.13.084-.211q.14-.014.127.127c-.08.002-.118.113-.211.084m.34.338c-.03-.093.08-.131.084-.211q.14-.014.127.127c-.08.002-.118.113-.211.084M6.99 9.925c.02.061.09.098.084.173-.137-.04-.195-.172-.297-.254h.087z"/><path fill="#FDA700" d="m6.309 10.563-.124-.043h-.043c-.038-.066-.102-.122-.084-.211.1.068.186.15.25.254m.337.339-.124-.043h-.043c-.038-.066-.102-.123-.084-.211q.152.1.25.254"/><path fill="#FCA800" d="M8.894 7.853c.034.002.066.008.085.042l-.003.134c-.101-.02-.157-.094-.206-.175zM7.2 11.282c.056.041.112.002.169 0-.004.07.005.159-.095.151-.079-.006-.074-.088-.075-.15m3.606-1.465c-.043.058-.03.162-.13.161-.013 0-.036-.032-.034-.045.015-.086.073-.122.163-.116m-.302.322c-.072.076-.069.169-.16.181-.011.002-.039-.028-.037-.042.008-.088.064-.127.197-.14m2.03-2.033c-.07.078-.068.17-.159.183-.01.002-.038-.028-.037-.041.006-.09.064-.128.196-.142m-3.259.219c-.084-.06-.172-.113-.214-.215.158-.016.195.09.214.215M7.41 11.24c.002-.057.041-.113 0-.17.073.009.146.036.138.116-.007.065-.085.05-.138.054m1.356-1.778.169-.254c.008.127-.018.232-.17.254m-.464-1.397.044.125c.028.165-.084.185-.213.198.039.05.105.073.122.136.026.1.093.208.006.3-.081.085-.149-.037-.224-.044-.184-.018-.35-.158-.565-.082.101.111.173.224.042.347-.11.103-.248.09-.393-.04-.076-.068-.191-.1-.213-.22l-.005.002c.01-.059-.017-.126.043-.172.013.05-.016.155.094.093.153-.087.33-.132.459-.26.269-.094.537-.187.756-.379z"/><path fill="#FCA800" d="M6.904 8.785c.097.095.227.143.323.248.092.1.22.028.287-.058.06-.078.04-.175-.086-.206-.029-.007-.077-.018-.068-.063a.1.1 0 0 1 .09-.08c.075-.01.175-.04.225-.004.147.105.357.006.484.176.05.067.104-.008.092-.07-.028-.145-.031-.32-.264-.289.052-.2.344-.016.356-.249.215.167.398.368.591.557.04.18-.064.255-.216.294-.108-.022-.18-.095-.248-.174-.08-.037-.072.033-.089.072-.056.137-.115.27-.214.385-.191.224-.419.345-.707.228-.303-.123-.513-.34-.556-.682-.004-.028 0-.057 0-.085"/><path fill="#D66900" d="m8.473 8.867.248.174c.088.124.118.242-.036.341.048-.22-.104-.359-.212-.515"/><path fill="#FCA800" d="M7.708 9.266c-.008-.094.022-.144.128-.144.105 0 .127.053.127.144 0 .115-.07.177-.164.177-.11 0-.084-.105-.09-.177m.64-.659c-.061.004-.088-.017-.07-.073.02-.066.032-.138.13-.13.069.005.14.022.133.099-.012.116-.142.05-.193.105m-1.106.645c.005-.056-.007-.127.077-.119.078.008.092.073.09.138 0 .065-.009.139-.094.127-.078-.01-.07-.088-.074-.146"/></g><defs><clipPath id="a"><path fill="#fff" d="M.5 0h16v16H.5z"/></clipPath></defs></svg>